<svg width="262" height="29" viewBox="0 0 262 29" fill="none" xmlns="http://www.w3.org/2000/svg">
    <path d="M35.133 1.66s-3.723 10.58-4.881 13.844c0 0-2.617 7.312-2.804 7.901-.245.772-.818 2.374-1.629 2.374-1.056 0-1.679-1.768-1.914-2.374-.772-2-1.1-4.255-1.419-6.369a54.423 54.423 0 0 1-.596-7.287 7.43 7.43 0 0 1 .42-2.57l1.93-5.523h-4.68S15.837 12.237 14.679 15.5c0 0-2.617 7.313-2.804 7.901-.243.772-.818 2.374-1.627 2.374-1.057 0-1.68-1.768-1.914-2.374-.772-2-1.102-4.255-1.42-6.368a57.6 57.6 0 0 1-.169-15.381H.011S5.07 17.745 6.573 21.473c.743 1.85 2.62 6.786 5.403 6.786 2.783 0 3.734-2.372 4.632-4.862.457-1.26 1.771-4.996 3.186-9.024 1.112 3.364 2.08 6.29 2.354 7.1.64 1.89 2.623 6.786 5.404 6.786 2.781 0 3.736-2.372 4.632-4.862 1.138-3.145 7.642-21.745 7.642-21.745l-4.694.007zM146.66 2.617v25.146h-4.292V1.659c2.239 0 11.658-.048 13.509.1 2.123.17 4.246.53 5.838 2.08.834.814 1.378 1.906 1.328 3.087-.182 4.371-5.527 5.521-8.789 6.77-.527.203-1.117.473-1.283 1.013-.166.54.148 1.07.451 1.529 2.851 4.31 6.149 8.385 10.229 11.56h-6.13s-1.491-1.398-2.122-2.11a46.35 46.35 0 0 1-5.636-7.685c-.355-.617-.706-1.323-.525-2.012.151-.58.637-.99 1.126-1.326 2.42-1.656 6.05-2.18 7.599-4.927 1.006-1.785.79-4.22-.698-5.678-1.224-1.198-3.105-1.432-4.74-1.46-1.889-.035-3.792.024-5.674.024l-.191-.007zM90.623 1.66h-6.45c4.567 7.22 5.775 14.939 5.441 22.909-.942-.58-3.234-1.762-8.01-9.854-2.087-3.537-2.772-4.73-4.933-8.221-1.291-2.082-2.936-5.307-5.805-5.307-1.29 0-1.93.478-1.93.478v26.13h6.447c-4.566-7.22-5.772-14.939-5.438-22.909 1.334 0 5.404 7.72 6.573 9.843 1.295 2.329 7.799 13.549 12.176 13.549-.037 0 .034 0 0 0 1.289 0 1.93-.479 1.93-.479V1.66zM52.729 1.223c-7.583 0-13.731 6.04-13.731 13.492 0 7.451 6.148 13.49 13.73 13.49 7.583 0 13.732-6.04 13.732-13.49S60.315 1.223 52.729 1.223zm.115 26.088c-4.577 0-8.288-5.635-8.288-12.586 0-6.952 3.71-12.587 8.288-12.587s8.299 5.635 8.299 12.587c0 6.95-3.723 12.586-8.299 12.586zM185.108 27.79v-6.436c-4.334 4.486-9.338 5.698-14.132 5.42V1.67h-4.438v26.115l18.57.006zM101.26 1.66h-6.891v26.13h6.895c11.386 0 15.339-5.861 15.339-13.073 0-7.212-3.958-13.057-15.343-13.057zm.128 25.25a9.028 9.028 0 0 1-2.579-.377V2.923a9.027 9.027 0 0 1 2.579-.385c8.047 0 10.421 5.453 10.421 12.183 0 6.73-2.374 12.189-10.421 12.189zM203.291 18.54c1.482 4.2 3.258 9.25 3.258 9.25h4.873l-7.837-21.746c-.902-2.49-1.863-4.861-4.632-4.861-2.769 0-4.759 4.896-5.403 6.785-.74 2.19-6.562 19.822-6.562 19.822h6.733a60.181 60.181 0 0 1-.386-9.25h9.956zm-9.388-6.131c.318-2.11.642-4.366 1.42-6.369.234-.606.857-2.373 1.914-2.373.809 0 1.384 1.605 1.627 2.373.193.589 2.804 7.901 2.804 7.901.303.851.772 2.2 1.32 3.73h-9.61c.089-1.754.264-3.509.525-5.262zM138.242 27.79l-.04-6.436c-4.337 4.486-9.3 5.698-14.088 5.42V15.05c2.895-.193 5.911.52 8.537 3.238l.022-3.267v-.58l-.022-3.27c-2.626 2.717-5.637 3.427-8.537 3.238V2.665c4.772-.29 9.168.55 13.509 5.037l.04-6.042-17.994.01v26.114h4.439v-.012l14.134.018zM235.252 1.66h-6.448c4.564 7.22 5.772 14.939 5.438 22.909-.942-.58-3.234-1.762-8.009-9.854-2.088-3.537-2.771-4.73-4.934-8.221-1.289-2.082-2.93-5.307-5.805-5.307-1.289 0-1.93.478-1.93.478v26.13h6.448c-4.566-7.22-5.773-14.939-5.437-22.909 1.332 0 5.404 7.72 6.573 9.843 1.293 2.329 7.797 13.549 12.174 13.549-.035 0 .034 0 0 0 1.289 0 1.93-.479 1.93-.479V1.66zM246.487 1.66h-6.889v26.13h6.893c11.386 0 15.338-5.861 15.338-13.073 0-7.212-3.958-13.057-15.342-13.057zm.128 25.25a9.028 9.028 0 0 1-2.579-.377V2.923a9.03 9.03 0 0 1 2.579-.385c8.047 0 10.421 5.453 10.421 12.183 0 6.73-2.374 12.189-10.421 12.189z" fill="#fff"/>
</svg>
