<svg width="24" height="24" viewBox="0 0 24 24" fill="none" xmlns="http://www.w3.org/2000/svg">
    <path d="M22 5.798a8.18 8.18 0 0 1-2.357.646 4.112 4.112 0 0 0 1.804-2.27 8.227 8.227 0 0 1-2.605.996 4.098 4.098 0 0 0-2.995-1.296c-2.649 0-4.596 2.472-3.997 5.037a11.65 11.65 0 0 1-8.457-4.287 4.109 4.109 0 0 0 1.269 5.478 4.087 4.087 0 0 1-1.858-.513c-.045 1.9 1.318 3.68 3.291 4.075a4.105 4.105 0 0 1-1.853.07 4.108 4.108 0 0 0 3.833 2.849A8.252 8.252 0 0 1 2 18.283a11.618 11.618 0 0 0 6.29 1.844c7.619 0 11.923-6.435 11.663-12.205A8.351 8.351 0 0 0 22 5.798z" fill="#fff"/>
</svg>
