<svg width="96" height="96" viewBox="0 0 96 96" xmlns="http://www.w3.org/2000/svg">
  <g transform="translate(8, 8) scale(0.94, 1.0)">
    <path d="M52.237 25.352c.213-.446.168-.99-.054-1.432-.353-.7-1.07-1.111-1.77-1.4-1.447-.599-3.019-.82-4.58-.862a22.785 22.785 0 0 0-8.844 1.484c-3.025 1.17-5.604 2.873-8.093 4.889-1.138.918-3.067 2.082-4.45 1-1.413-1.104-.455-2.88.393-4.08.997-1.41 2.44-2.518 3.922-3.377 2.181-1.266 4.646-1.965 7.086-2.536 2.564-.603 5.205-.772 7.815-1.088 2.273-.274 4.662-.3 6.62-1.665 2.916-2.034 1.488-5.085-1.175-6.406-3.184-1.58-6.71-2.07-10.226-1.73a41.925 41.925 0 0 0-3.717.537c-1.503.284-5.838.826-4.932-2.063.211-.676.74-1.204 1.315-1.613 3.051-2.172 6.812-2.733 10.485-2.783a28.609 28.609 0 0 1 9.322 1.422c2.53.833 4.803 2.168 6.838 3.884 1.685 1.424 3.011 3.235 4.824 4.51.918.646 2.376.771 3.22-.079.992-.991.625-2.57-.09-3.592-.954-1.366-2.465-2.329-3.853-3.203C57.83 2.358 52.587.879 47.38.28A41.29 41.29 0 0 0 39.52.113c-3.647.279-7.278.965-10.733 2.178-2.427.851-4.858 1.91-6.984 3.377-1.595 1.097-3.388 2.708-3.79 4.691-.482 2.365 1.214 4.438 3.548 4.742 1.395.182 2.807-.172 4.127-.661 2.875-1.061 5.678-2.329 8.617-3.217 1.544-.466 3.14-.936 4.765-.904 1.119.022 2.979.266 3.594 1.37 1.68 3.015-5.906 4.377-7.455 4.873-2.433.78-4.883 1.544-7.169 2.701-4.72 2.388-8.927 5.952-10.901 10.97-.783 1.986-.7 4.457.49 6.27 1.292 1.967 3.956 2.73 6.104 1.75 1.474-.675 1.993-1.65 2.237-2.081 1.166-2.048 2.333-5.18 6.416-8.05a17.605 17.605 0 0 1 15.911-2.235c.978.339 2.101.683 3.106.24.356-.148.65-.414.83-.754l.003-.021zM22.833 42.616c-.493.038-.942.35-1.213.763-.431.656-.428 1.483-.33 2.233.206 1.55.802 3.024 1.544 4.399a22.794 22.794 0 0 0 5.708 6.916c2.527 2.033 5.294 3.416 8.285 4.565 1.363.523 3.335 1.61 3.087 3.352-.25 1.775-2.267 1.833-3.73 1.7-1.719-.158-3.4-.854-4.885-1.708-2.19-1.259-4.023-3.042-5.74-4.87-1.804-1.917-3.271-4.12-4.848-6.22-1.374-1.834-2.591-3.888-4.751-4.9-3.22-1.508-5.149 1.254-4.962 4.22.224 3.546 1.562 6.85 3.615 9.72.728 1.017 1.507 2 2.323 2.948.997 1.158 3.634 4.644.675 5.306-.69.155-1.412-.038-2.054-.331-3.407-1.558-5.772-4.535-7.653-7.69a28.596 28.596 0 0 1-3.429-8.784c-.544-2.605-.524-5.243-.056-7.864.392-2.172 1.297-4.225 1.494-6.43.097-1.12-.521-2.442-1.677-2.75-1.35-.363-2.537.743-3.066 1.874-.706 1.509-.784 3.3-.848 4.938-.203 5.27 1.137 10.55 3.224 15.361a41.273 41.273 0 0 0 3.785 6.889c2.064 3.02 4.474 5.819 7.252 8.205 1.95 1.676 4.083 3.253 6.413 4.363 1.747.832 4.039 1.58 5.958.936 2.286-.772 3.235-3.27 2.331-5.443-.539-1.3-1.552-2.345-2.634-3.244-2.36-1.957-4.857-3.753-7.096-5.853-1.173-1.101-2.38-2.252-3.165-3.675-.541-.98-1.259-2.714-.61-3.798 1.77-2.963 6.743 2.926 7.948 4.02 1.89 1.717 3.78 3.454 5.924 4.856 4.43 2.894 9.62 4.756 14.953 3.956 2.112-.316 4.21-1.623 5.186-3.56 1.056-2.1.385-4.792-1.538-6.16-1.321-.94-2.426-.9-2.92-.897-2.357.013-5.653.569-10.181-1.531a17.607 17.607 0 0 1-9.886-12.661c-.193-1.018-.46-2.162-1.345-2.811a1.672 1.672 0 0 0-1.07-.342l-.018.002zM52.486 59.451c.279.407.772.64 1.268.669.783.044 1.498-.371 2.098-.832 1.239-.952 2.219-2.205 3.036-3.536a22.795 22.795 0 0 0 3.136-8.402c.498-3.204.314-6.29-.187-9.454-.228-1.447-.272-3.694 1.358-4.354 1.663-.675 2.723 1.046 3.337 2.381.723 1.568.965 3.372.965 5.084 0 2.524-.624 5.004-1.35 7.405-.76 2.522-1.93 4.894-2.965 7.31-.898 2.105-2.07 4.188-1.867 6.56.303 3.543 3.658 3.833 6.135 2.187 2.959-1.967 5.147-4.774 6.61-7.99.518-1.14.978-2.305 1.392-3.486.507-1.448 2.204-5.47 4.255-3.24.482.52.675 1.243.739 1.945.353 3.729-1.04 7.265-2.833 10.472a28.61 28.61 0 0 1-5.892 7.363c-1.988 1.775-4.28 3.074-6.783 3.98-2.076.746-4.308.989-6.317 1.92-1.019.472-1.852 1.674-1.544 2.828.364 1.35 1.913 1.827 3.158 1.719 1.659-.144 3.248-.971 4.699-1.737 4.666-2.459 8.568-6.26 11.691-10.472A41.357 41.357 0 0 0 80.7 61.05c1.582-3.298 2.798-6.786 3.48-10.384.477-2.528.772-5.162.572-7.735-.153-1.93-.652-4.288-2.169-5.627-1.808-1.598-4.449-1.168-5.88.7-.855 1.118-1.254 2.518-1.491 3.905-.515 3.023-.823 6.078-1.522 9.068-.367 1.566-.76 3.184-1.6 4.578-.579.959-1.72 2.446-2.984 2.428-3.452-.053-.837-7.304-.493-8.894.541-2.495 1.103-5 1.244-7.56.29-5.28-.69-10.707-4.052-14.928-1.328-1.67-3.51-2.834-5.675-2.71-2.347.135-4.342 2.062-4.565 4.41-.154 1.615.433 2.552.683 2.979 1.19 2.034 3.318 4.61 3.762 9.582a17.602 17.602 0 0 1-6.01 14.904c-.784.675-1.64 1.48-1.762 2.571a1.662 1.662 0 0 0 .25 1.114z"/>
  </g>
  <style>
    @media (prefers-color-scheme: light) {
      path { fill: #160033; }
    }
    @media (prefers-color-scheme: dark) {
      path { fill: #FFF; }
    }
  </style>
</svg>
