<svg width="186" height="133" viewBox="0 0 186 133" fill="none" xmlns="http://www.w3.org/2000/svg">
<g clip-path="url(#clip0_251_26565)">
<path fill-rule="evenodd" clip-rule="evenodd" d="M61.6611 0.926245L69.4412 8.75589C70.6684 9.99089 70.6684 11.9931 69.4412 13.2281L61.6452 21.0764C60.418 22.3114 58.4284 22.3114 57.2013 21.0764L49.4184 13.2468C48.1912 12.0118 48.1912 10.0096 49.4184 8.77461L57.2172 0.926245C58.4444 -0.308748 60.4339 -0.308748 61.6611 0.926245ZM58.9119 2.91239L58.88 2.9418L51.4239 10.4453C51.1264 10.7447 51.1184 11.2205 51.3947 11.5333L51.4239 11.5654L58.8694 19.0582C59.1669 19.3576 59.6397 19.3656 59.9478 19.0876L59.9797 19.0582L67.4358 11.5547C67.7412 11.2473 67.7412 10.7474 67.4358 10.4373L59.9903 2.94447C59.6928 2.64508 59.22 2.63706 58.9119 2.91507V2.91239ZM59.5733 6.21373L64.1845 10.857C64.2616 10.9345 64.2616 11.0575 64.1845 11.1377L59.5653 15.7863C59.4883 15.8638 59.3634 15.8638 59.2864 15.7863L54.6752 11.143C54.5981 11.0655 54.5981 10.9425 54.6752 10.8623L59.2944 6.21373C59.3714 6.13621 59.4963 6.13621 59.5733 6.21373Z" fill="white"/>
<path d="M80.4566 2.72559L74.2197 19.2964H77.131L78.5308 15.5112H85.6389L87.06 19.2964H90.0191L83.7822 2.72559H80.4566ZM82.061 6.00286L84.6747 12.9263H79.4924L82.061 6.00286Z" fill="white"/>
<path d="M100.868 16.9413H94.5165L100.801 9.28006V7.18164H91.1457V9.53668H97.5207L91.0527 17.2193V19.2963H100.868V16.9413Z" fill="white"/>
<path d="M103.619 16.2513C103.619 18.7186 104.857 19.435 107.152 19.435C107.864 19.435 108.552 19.3655 109.056 19.2746V16.9436C108.645 16.989 108.392 17.0131 107.933 17.0131C106.947 17.0131 106.328 16.8982 106.328 15.8129V9.5363H108.852V7.18126H106.328V3.62598H103.622V7.18126H101.948V9.5363H103.622V16.2513H103.619Z" fill="white"/>
<path d="M115.979 19.5504C118.388 19.5504 120.29 18.2807 121.14 16.1555L118.779 15.2547C118.412 16.5004 117.334 17.1954 115.982 17.1954C114.215 17.1954 112.978 15.9256 112.77 13.8486H121.209V12.9264C121.209 9.60365 119.353 6.94922 115.865 6.94922C112.377 6.94922 110.133 9.69454 110.133 13.2498C110.133 16.9869 112.542 19.5504 115.982 19.5504H115.979ZM115.841 9.2802C117.584 9.2802 118.41 10.4323 118.434 11.7742H112.906C113.318 10.1356 114.42 9.2802 115.841 9.2802Z" fill="white"/>
<path d="M125.268 13.2498C125.268 10.7798 126.553 9.32565 128.431 9.32565C129.9 9.32565 130.792 10.3201 131.138 11.6352L133.454 10.3655C132.811 8.4248 131.024 6.94922 128.431 6.94922C124.991 6.94922 122.516 9.51009 122.516 13.2498C122.516 16.9896 124.991 19.5504 128.431 19.5504C131.045 19.5504 132.88 18.0027 133.499 16.0406L131.138 14.8403C130.795 16.1796 129.9 17.1499 128.431 17.1499C126.55 17.1499 125.268 15.7171 125.268 13.2472V13.2498Z" fill="white"/>
</g>
<path d="M20.0195 69.18H9.43949L4.01149 100H0.975487L12.4755 34.864H15.5115L9.99149 66.236H20.4795L25.9995 34.864H29.0355L17.6275 100H14.5915L20.0195 69.18ZM36.7311 87.12H27.6231L24.0351 100H20.9071L39.7671 34.864H42.8031L38.9391 100H35.9031L36.7311 87.12ZM28.4511 84.36H36.9151L39.2151 50.872L41.0551 36.612L37.8351 50.872L28.4511 84.36ZM45.0694 100H42.2174L53.7174 34.864H56.2014L59.6974 80.68L60.0654 94.664L62.1814 77.276L69.7254 34.864H72.5774L61.0774 100H58.5934L55.0974 53.356L54.7294 39.464L52.6134 57.036L45.0694 100ZM78.561 34.864H84.817C90.981 34.864 94.753 38.728 93.373 46.364L85.737 89.236C84.541 96.78 80.309 100 73.317 100H67.061L78.561 34.864ZM81.045 37.624L70.649 97.148H73.133C78.837 97.148 81.689 94.848 82.793 88.776L90.337 46.18C91.349 40.016 88.865 37.624 84.173 37.624H81.045ZM89.4766 100L100.885 34.864H107.601C114.961 34.864 116.709 38.912 115.697 44.432L113.397 57.404C112.569 62.556 110.545 65.132 105.945 65.96C110.545 67.156 111.373 70.836 110.361 75.988L107.693 91.168C106.589 97.332 104.013 100 96.2846 100H89.4766ZM103.369 37.44L98.5846 64.672H101.437C107.233 64.672 109.349 62.832 110.361 57.404L112.661 44.34C113.397 40.016 112.477 37.44 107.049 37.44H103.369ZM98.1246 67.34L92.8806 97.24H96.4686C102.265 97.24 103.921 94.94 104.749 90.34L107.325 75.528C108.337 70.468 107.233 67.34 100.977 67.34H98.1246ZM120.198 100.644C113.758 100.644 111.366 96.32 112.562 90.156L120.658 44.34C122.038 37.072 125.074 34.312 130.134 34.312C135.838 34.312 139.058 37.992 137.954 44.524L129.674 91.26C128.57 97.332 125.994 100.644 120.198 100.644ZM120.382 97.792C124.338 97.792 125.81 95.492 126.638 90.892L134.918 44.248C135.746 39.648 134.09 36.98 129.858 36.98C126.546 36.98 124.522 39.188 123.786 43.88L115.506 90.432C114.77 95.032 116.058 97.792 120.382 97.792ZM142.796 100.644C136.356 100.644 133.964 96.32 135.16 90.156L143.256 44.34C144.636 37.072 147.672 34.312 152.732 34.312C158.436 34.312 161.656 37.992 160.552 44.524L152.272 91.26C151.168 97.332 148.592 100.644 142.796 100.644ZM142.98 97.792C146.936 97.792 148.408 95.492 149.236 90.892L157.516 44.248C158.344 39.648 156.688 36.98 152.456 36.98C149.144 36.98 147.12 39.188 146.384 43.88L138.104 90.432C137.368 95.032 138.656 97.792 142.98 97.792ZM170.909 60.992L163.641 75.436L159.409 100H156.373L167.873 34.864H170.817L165.665 64.12L163.549 72.676L166.309 66.052L182.317 34.864H185.261L173.025 58.876L174.681 100H171.645L170.633 67.248L170.909 60.992Z" fill="#F9F9FB"/>
<g opacity="0.95">
<path d="M27.2662 130V122.615H29.848C30.3624 122.615 30.7867 122.704 31.1208 122.882C31.4549 123.058 31.7037 123.294 31.8672 123.593C32.0306 123.888 32.1124 124.216 32.1124 124.577C32.1124 124.894 32.0559 125.156 31.9429 125.363C31.8323 125.57 31.6857 125.733 31.503 125.853C31.3227 125.974 31.1268 126.062 30.9153 126.12V126.192C31.1412 126.207 31.3684 126.286 31.5968 126.43C31.8251 126.575 32.0162 126.781 32.1701 127.05C32.3239 127.32 32.4008 127.649 32.4008 128.038C32.4008 128.409 32.3167 128.742 32.1484 129.037C31.9802 129.333 31.7145 129.567 31.3516 129.74C30.9886 129.913 30.5162 130 29.9345 130H27.2662ZM28.1605 129.207H29.9345C30.5186 129.207 30.9333 129.094 31.1785 128.868C31.4261 128.639 31.5499 128.363 31.5499 128.038C31.5499 127.788 31.4862 127.558 31.3588 127.346C31.2314 127.132 31.0499 126.962 30.8143 126.834C30.5787 126.704 30.2999 126.639 29.9778 126.639H28.1605V129.207ZM28.1605 125.861H29.8191C30.0883 125.861 30.3311 125.808 30.5475 125.702C30.7662 125.596 30.9393 125.447 31.0667 125.255C31.1965 125.062 31.2614 124.837 31.2614 124.577C31.2614 124.252 31.1484 123.977 30.9225 123.751C30.6965 123.523 30.3383 123.409 29.848 123.409H28.1605V125.861ZM34.3029 132.077C34.1587 132.077 34.03 132.065 33.9171 132.041C33.8041 132.019 33.726 131.998 33.6827 131.976L33.899 131.226C34.1058 131.279 34.2885 131.298 34.4471 131.284C34.6058 131.269 34.7464 131.198 34.869 131.071C34.994 130.946 35.1082 130.743 35.2115 130.462L35.3702 130.029L33.3221 124.462H34.2452L35.774 128.875H35.8317L37.3606 124.462H38.2837L35.9327 130.808C35.8269 131.094 35.6959 131.331 35.5397 131.518C35.3834 131.708 35.2019 131.849 34.9952 131.94C34.7909 132.031 34.5601 132.077 34.3029 132.077Z" fill="#F9F9FB"/>
<path d="M59.1012 120.193C59.1012 120.193 57.5087 124.489 57.0134 125.814C57.0134 125.814 55.894 128.783 55.8139 129.022C55.7091 129.335 55.4639 129.985 55.1171 129.985C54.6656 129.985 54.3989 129.268 54.2982 129.022C53.968 128.21 53.8276 127.294 53.6914 126.436C53.5366 125.457 53.4514 124.468 53.4363 123.478C53.4311 123.123 53.492 122.769 53.6163 122.434L54.4418 120.192H52.4399C52.4399 120.192 50.8466 124.488 50.3513 125.813C50.3513 125.813 49.2318 128.781 49.1518 129.02C49.0477 129.334 48.8017 129.984 48.4558 129.984C48.0034 129.984 47.7368 129.266 47.6369 129.02C47.3067 128.208 47.1655 127.293 47.0293 126.435C46.7113 124.366 46.6871 122.265 46.9575 120.19H44.0771C44.0771 120.19 46.2409 126.724 46.884 128.237C47.2018 128.989 48.0051 130.992 49.1955 130.992C50.386 130.992 50.7929 130.029 51.1768 129.019C51.3725 128.507 51.9347 126.99 52.5398 125.355C53.0153 126.721 53.4297 127.908 53.547 128.237C53.8202 129.004 54.6689 130.992 55.8585 130.992C57.0481 130.992 57.4567 130.029 57.8398 129.019C58.3269 127.741 61.1089 120.19 61.1089 120.19L59.1012 120.193Z" fill="white"/>
<path d="M106.81 120.582V130.791H104.974V120.193C105.932 120.193 109.961 120.174 110.753 120.234C111.661 120.303 112.569 120.449 113.25 121.078C113.607 121.409 113.84 121.852 113.818 122.332C113.741 124.106 111.454 124.573 110.059 125.08C109.833 125.162 109.581 125.272 109.51 125.491C109.439 125.711 109.573 125.925 109.703 126.112C110.922 127.862 112.333 129.516 114.078 130.805H111.456C111.456 130.805 110.818 130.238 110.548 129.949C109.634 128.99 108.826 127.945 108.138 126.829C107.986 126.578 107.836 126.291 107.913 126.012C107.978 125.777 108.186 125.61 108.395 125.473C109.43 124.801 110.983 124.589 111.646 123.473C112.076 122.748 111.983 121.76 111.347 121.168C110.823 120.682 110.018 120.587 109.319 120.575C108.511 120.561 107.697 120.585 106.892 120.585L106.81 120.582Z" fill="white"/>
<path d="M82.839 120.193H80.08C82.0332 123.124 82.55 126.258 82.4072 129.494C82.0043 129.259 81.0236 128.779 78.9804 125.494C78.088 124.058 77.7949 123.573 76.8703 122.156C76.318 121.311 75.6146 120.001 74.387 120.001C73.8356 120.001 73.5615 120.196 73.5615 120.196V130.804H76.3196C74.3664 127.873 73.8504 124.739 73.9933 121.503C74.5637 121.503 76.3048 124.637 76.8051 125.499C77.359 126.445 80.1411 131 82.0134 131C81.9977 131 82.0283 131 82.0134 131C82.5649 131 82.839 130.806 82.839 130.806V120.193Z" fill="white"/>
<path d="M66.6285 120.017C63.3849 120.017 60.7548 122.469 60.7548 125.494C60.7548 128.519 63.3849 130.97 66.6285 130.97C69.8721 130.97 72.5022 128.518 72.5022 125.494C72.5022 122.47 69.8737 120.017 66.6285 120.017ZM66.678 130.608C64.7198 130.608 63.1323 128.32 63.1323 125.498C63.1323 122.676 64.7198 120.388 66.678 120.388C68.6362 120.388 70.2279 122.676 70.2279 125.498C70.2279 128.32 68.6354 130.608 66.678 130.608Z" fill="white"/>
<path d="M123.258 130.802V128.189C121.404 130.011 119.263 130.503 117.212 130.39V120.198H115.313V130.8L123.258 130.802Z" fill="white"/>
<path d="M87.3892 120.194H84.4412V130.802H87.3909C92.2616 130.802 93.9523 128.423 93.9523 125.495C93.9523 122.567 92.2591 120.194 87.3892 120.194ZM87.4437 130.445C87.0702 130.445 86.6987 130.393 86.3408 130.292V120.707C86.6985 120.604 87.07 120.551 87.4437 120.55C90.8862 120.55 91.9016 122.764 91.9016 125.496C91.9016 128.228 90.8862 130.445 87.4437 130.445Z" fill="white"/>
<path d="M131.036 127.047C131.67 128.752 132.429 130.802 132.429 130.802H134.514L131.161 121.974C130.776 120.963 130.365 120 129.18 120C127.995 120 127.144 121.988 126.869 122.755C126.552 123.644 124.062 130.802 124.062 130.802H126.942C126.785 129.556 126.73 128.301 126.777 127.047H131.036ZM127.02 124.558C127.156 123.701 127.295 122.785 127.627 121.972C127.727 121.726 127.994 121.008 128.446 121.008C128.792 121.008 129.038 121.66 129.142 121.972C129.225 122.211 130.342 125.18 130.342 125.18C130.471 125.525 130.672 126.073 130.906 126.694H126.795C126.833 125.982 126.908 125.269 127.02 124.558Z" fill="white"/>
<path d="M103.209 130.802L103.192 128.189C101.337 130.011 99.2136 130.503 97.1655 130.39V125.629C98.4038 125.551 99.6941 125.841 100.818 126.944L100.827 125.618V125.383L100.818 124.055C99.6941 125.158 98.4063 125.446 97.1655 125.369V120.602C99.207 120.484 101.088 120.825 102.944 122.647L102.962 120.194L95.2642 120.197V130.8H97.163V130.795L103.209 130.802Z" fill="white"/>
<path d="M144.708 120.193H141.95C143.902 123.124 144.419 126.258 144.276 129.494C143.873 129.259 142.892 128.779 140.85 125.494C139.957 124.058 139.664 123.573 138.739 122.156C138.188 121.311 137.486 120.001 136.256 120.001C135.704 120.001 135.43 120.196 135.43 120.196V130.804H138.188C136.235 127.873 135.719 124.739 135.863 121.503C136.432 121.503 138.174 124.637 138.675 125.499C139.228 126.445 142.01 131 143.882 131C143.867 131 143.897 131 143.882 131C144.434 131 144.708 130.806 144.708 130.806V120.193Z" fill="white"/>
<path d="M149.514 120.194H146.567V130.802H149.516C154.386 130.802 156.077 128.423 156.077 125.495C156.077 122.567 154.384 120.194 149.514 120.194ZM149.569 130.445C149.195 130.445 148.824 130.393 148.466 130.292V120.707C148.823 120.604 149.195 120.551 149.569 120.55C153.011 120.55 154.027 122.764 154.027 125.496C154.027 128.228 153.011 130.445 149.569 130.445Z" fill="white"/>
</g>
<defs>
<clipPath id="clip0_251_26565">
<rect width="85" height="22" fill="white" transform="translate(48.5)"/>
</clipPath>
</defs>
</svg>
