<svg width="186" height="148" viewBox="0 0 186 148" fill="none" xmlns="http://www.w3.org/2000/svg">
<path d="M95.3538 12.8411C95.444 12.6536 95.4249 12.4248 95.3309 12.239C95.1815 11.9447 94.8779 11.7719 94.5815 11.6504C93.9688 11.3985 93.3033 11.3056 92.6423 11.2879C91.3648 11.2475 90.092 11.4596 88.8977 11.9119C87.617 12.4038 86.525 13.1198 85.4712 13.9675C84.9893 14.3535 84.1726 14.8429 83.587 14.3879C82.9887 13.9237 83.3944 13.177 83.7534 12.6725C84.1755 12.0796 84.7865 11.6138 85.414 11.2526C86.3374 10.7203 87.3811 10.4264 88.4142 10.1863C89.4998 9.93281 90.618 9.86176 91.7231 9.72889C92.6855 9.61369 93.697 9.60276 94.526 9.02884C95.7607 8.17364 95.1561 6.89084 94.0285 6.33542C92.6804 5.67111 91.1875 5.46509 89.6988 5.60804C89.1711 5.65992 88.646 5.73526 88.125 5.83382C87.4887 5.95323 85.6532 6.18112 86.0368 4.96643C86.1262 4.6822 86.3501 4.4602 86.5936 4.28824C87.8854 3.37502 89.4778 3.13914 91.033 3.11812C92.3729 3.09924 93.7066 3.30128 94.9799 3.716C96.0511 4.06624 97.0135 4.62754 97.8752 5.34904C98.5886 5.94777 99.15 6.7092 99.9177 7.24528C100.306 7.51689 100.924 7.56945 101.281 7.21207C101.701 6.7954 101.546 6.1315 101.243 5.7018C100.839 5.12746 100.199 4.72257 99.6115 4.35509C97.7219 3.1732 95.502 2.55135 93.2973 2.2995C92.1928 2.17104 91.0784 2.14752 89.9694 2.22928C88.4252 2.34659 86.8879 2.63502 85.425 3.14503C84.3974 3.50283 83.3681 3.94809 82.468 4.5649C81.7926 5.02613 81.0335 5.70348 80.8633 6.53724C80.6592 7.53161 81.3773 8.40321 82.3655 8.53102C82.9561 8.60755 83.554 8.45871 84.1129 8.25311C85.3302 7.80701 86.517 7.27387 87.7613 6.90051C88.4151 6.70458 89.0908 6.50697 89.7789 6.52042C90.2526 6.52967 91.0402 6.63226 91.3006 7.09644C92.0119 8.36411 88.7999 8.93676 88.1441 9.14531C87.114 9.47326 86.0766 9.79449 85.1087 10.2809C83.1103 11.285 81.329 12.7835 80.4932 14.8933C80.1617 15.7283 80.1968 16.7673 80.7007 17.5295C81.2477 18.3566 82.3757 18.6774 83.2851 18.2653C83.9092 17.9815 84.129 17.5716 84.2323 17.3904C84.726 16.5293 85.2201 15.2124 86.9488 14.0057C87.9161 13.3295 89.0315 12.8916 90.203 12.7282C91.3744 12.5648 92.5682 12.6806 93.6856 13.066C94.0997 13.2086 94.5752 13.3532 95.0007 13.1669C95.1514 13.1047 95.2759 12.9929 95.3521 12.8499L95.3538 12.8411ZM82.9041 20.0998C82.6953 20.1158 82.5052 20.2469 82.3905 20.4206C82.208 20.6964 82.2093 21.0441 82.2507 21.3594C82.338 22.0112 82.5903 22.6309 82.9045 23.209C83.5082 24.3277 84.3297 25.3161 85.3213 26.1169C86.3912 26.9716 87.5628 27.5531 88.8292 28.0362C89.4063 28.2561 90.2412 28.7132 90.1362 29.4456C90.0304 30.1919 89.1763 30.2163 88.5569 30.1604C87.8291 30.0939 87.1173 29.8013 86.4886 29.4422C85.5613 28.9129 84.7852 28.1632 84.0583 27.3946C83.2944 26.5886 82.6733 25.6624 82.0056 24.7794C81.4238 24.0083 80.9086 23.1447 79.994 22.7192C78.6307 22.0851 77.8139 23.2464 77.8931 24.4935C77.9879 25.9844 78.5544 27.3736 79.4237 28.5803C79.7319 29.0079 80.0618 29.4212 80.4073 29.8198C80.8294 30.3067 81.9459 31.7724 80.6931 32.0507C80.4009 32.1159 80.0952 32.0347 79.8234 31.9115C78.3808 31.2565 77.3795 30.0048 76.5831 28.6783C75.8967 27.5354 75.406 26.2874 75.1312 24.985C74.9009 23.8897 74.9094 22.7806 75.1075 21.6786C75.2735 20.7653 75.6567 19.9022 75.7401 18.9751C75.7812 18.5042 75.5195 17.9483 75.03 17.8188C74.4584 17.6662 73.9559 18.1312 73.7319 18.6067C73.433 19.2412 73.3999 19.9942 73.3728 20.6829C73.2869 22.8987 73.8542 25.1187 74.7379 27.1415C75.1781 28.1554 75.7147 29.1253 76.3405 30.038C77.2144 31.3078 78.2348 32.4846 79.411 33.4878C80.2366 34.1925 81.1397 34.8556 82.1263 35.3223C82.866 35.6721 83.8364 35.9866 84.6489 35.7158C85.6168 35.3912 86.0186 34.3409 85.6359 33.4273C85.4076 32.8807 84.9787 32.4413 84.5206 32.0633C83.5214 31.2405 82.4641 30.4854 81.5161 29.6024C81.0195 29.1395 80.5084 28.6556 80.1761 28.0573C79.947 27.6452 79.643 26.9161 79.9178 26.4604C80.6672 25.2146 82.7728 27.6906 83.283 28.1506C84.0832 28.8725 84.8835 29.6028 85.7912 30.1923C87.6669 31.4091 89.8644 32.192 92.1224 31.8556C93.0166 31.7228 93.9049 31.1732 94.3182 30.3588C94.7653 29.4759 94.4812 28.344 93.667 27.7688C93.1076 27.3736 92.6398 27.3904 92.4306 27.3917C91.4327 27.3971 90.0371 27.6309 88.12 26.748C87.0471 26.254 86.1079 25.5136 85.3801 24.5879C84.6523 23.6623 84.1567 22.578 83.9342 21.4246C83.8525 20.9966 83.7394 20.5156 83.3647 20.2427C83.2349 20.1443 83.0749 20.0935 82.9117 20.0989L82.9041 20.0998ZM95.4592 27.1781C95.5774 27.3492 95.7861 27.4472 95.9961 27.4594C96.3276 27.4779 96.6304 27.3034 96.8844 27.1096C97.409 26.7093 97.8239 26.1825 98.1699 25.6228C98.8436 24.5442 99.295 23.3434 99.4976 22.0902C99.7085 20.7431 99.6306 19.4455 99.4185 18.1152C99.3219 17.5068 99.3033 16.5621 99.9934 16.2846C100.698 16.0008 101.146 16.7244 101.406 17.2857C101.712 17.945 101.815 18.7035 101.815 19.4233C101.815 20.4845 101.551 21.5272 101.243 22.5367C100.922 23.5971 100.426 24.5944 99.9879 25.6102C99.6077 26.4953 99.1115 27.3711 99.1974 28.3684C99.3257 29.8581 100.746 29.98 101.795 29.2879C103.048 28.4609 103.974 27.2807 104.594 25.9285C104.813 25.4492 105.008 24.9594 105.183 24.4628C105.398 23.854 106.116 22.1629 106.985 23.1005C107.189 23.3192 107.27 23.6232 107.298 23.9183C107.447 25.4862 106.857 26.9729 106.098 28.3213C105.445 29.4832 104.602 30.5293 103.603 31.4171C102.762 32.1634 101.791 32.7096 100.731 33.0905C99.8525 33.4042 98.9074 33.5063 98.0568 33.8978C97.6254 34.0962 97.2727 34.6016 97.4031 35.0868C97.5572 35.6544 98.213 35.855 98.7402 35.8096C99.4426 35.749 100.115 35.4013 100.73 35.0792C102.705 34.0453 104.357 32.4472 105.68 30.6763C106.344 29.7908 106.922 28.8446 107.405 27.8504C108.075 26.4637 108.59 24.9972 108.879 23.4844C109.081 22.4215 109.205 21.314 109.121 20.2322C109.056 19.4207 108.845 18.4293 108.202 17.8663C107.437 17.1944 106.319 17.3752 105.713 18.1606C105.351 18.6307 105.182 19.2193 105.081 19.8025C104.863 21.0735 104.733 22.358 104.437 23.6152C104.282 24.2736 104.115 24.9539 103.76 25.54C103.514 25.9432 103.031 26.5684 102.496 26.5609C101.035 26.5386 102.142 23.4899 102.287 22.8214C102.517 21.7723 102.754 20.7191 102.814 19.6427C102.937 17.4228 102.522 15.141 101.099 13.3662C100.536 12.6641 99.6124 12.1747 98.6957 12.2268C97.702 12.2836 96.8573 13.0938 96.7629 14.081C96.6977 14.76 96.9462 15.154 97.0521 15.3335C97.5559 16.1887 98.4569 17.2718 98.6449 19.3623C98.7521 20.5324 98.5772 21.711 98.1348 22.8007C97.6923 23.8904 96.9949 24.8598 96.1003 25.6287C95.7683 25.9125 95.4059 26.251 95.3542 26.7097C95.3327 26.8733 95.3702 27.0393 95.4601 27.1781H95.4592Z" fill="#F9F9FB"/>
<path d="M20.0195 84.18H9.43949L4.01149 115H0.975487L12.4755 49.864H15.5115L9.99149 81.236H20.4795L25.9995 49.864H29.0355L17.6275 115H14.5915L20.0195 84.18ZM36.7311 102.12H27.6231L24.0351 115H20.9071L39.7671 49.864H42.8031L38.9391 115H35.9031L36.7311 102.12ZM28.4511 99.36H36.9151L39.2151 65.872L41.0551 51.612L37.8351 65.872L28.4511 99.36ZM45.0694 115H42.2174L53.7174 49.864H56.2014L59.6974 95.68L60.0654 109.664L62.1814 92.276L69.7254 49.864H72.5774L61.0774 115H58.5934L55.0974 68.356L54.7294 54.464L52.6134 72.036L45.0694 115ZM78.561 49.864H84.817C90.981 49.864 94.753 53.728 93.373 61.364L85.737 104.236C84.541 111.78 80.309 115 73.317 115H67.061L78.561 49.864ZM81.045 52.624L70.649 112.148H73.133C78.837 112.148 81.689 109.848 82.793 103.776L90.337 61.18C91.349 55.016 88.865 52.624 84.173 52.624H81.045ZM89.4766 115L100.885 49.864H107.601C114.961 49.864 116.709 53.912 115.697 59.432L113.397 72.404C112.569 77.556 110.545 80.132 105.945 80.96C110.545 82.156 111.373 85.836 110.361 90.988L107.693 106.168C106.589 112.332 104.013 115 96.2846 115H89.4766ZM103.369 52.44L98.5846 79.672H101.437C107.233 79.672 109.349 77.832 110.361 72.404L112.661 59.34C113.397 55.016 112.477 52.44 107.049 52.44H103.369ZM98.1246 82.34L92.8806 112.24H96.4686C102.265 112.24 103.921 109.94 104.749 105.34L107.325 90.528C108.337 85.468 107.233 82.34 100.977 82.34H98.1246ZM120.198 115.644C113.758 115.644 111.366 111.32 112.562 105.156L120.658 59.34C122.038 52.072 125.074 49.312 130.134 49.312C135.838 49.312 139.058 52.992 137.954 59.524L129.674 106.26C128.57 112.332 125.994 115.644 120.198 115.644ZM120.382 112.792C124.338 112.792 125.81 110.492 126.638 105.892L134.918 59.248C135.746 54.648 134.09 51.98 129.858 51.98C126.546 51.98 124.522 54.188 123.786 58.88L115.506 105.432C114.77 110.032 116.058 112.792 120.382 112.792ZM142.796 115.644C136.356 115.644 133.964 111.32 135.16 105.156L143.256 59.34C144.636 52.072 147.672 49.312 152.732 49.312C158.436 49.312 161.656 52.992 160.552 59.524L152.272 106.26C151.168 112.332 148.592 115.644 142.796 115.644ZM142.98 112.792C146.936 112.792 148.408 110.492 149.236 105.892L157.516 59.248C158.344 54.648 156.688 51.98 152.456 51.98C149.144 51.98 147.12 54.188 146.384 58.88L138.104 105.432C137.368 110.032 138.656 112.792 142.98 112.792ZM170.909 75.992L163.641 90.436L159.409 115H156.373L167.873 49.864H170.817L165.665 79.12L163.549 87.676L166.309 81.052L182.317 49.864H185.261L173.025 73.876L174.681 115H171.645L170.633 82.248L170.909 75.992Z" fill="#F9F9FB"/>
<g opacity="0.95">
<path d="M27.2662 145V137.615H29.848C30.3624 137.615 30.7867 137.704 31.1208 137.882C31.4549 138.058 31.7037 138.294 31.8672 138.593C32.0306 138.888 32.1124 139.216 32.1124 139.577C32.1124 139.894 32.0559 140.156 31.9429 140.363C31.8323 140.57 31.6857 140.733 31.503 140.853C31.3227 140.974 31.1268 141.062 30.9153 141.12V141.192C31.1412 141.207 31.3684 141.286 31.5968 141.43C31.8251 141.575 32.0162 141.781 32.1701 142.05C32.3239 142.32 32.4008 142.649 32.4008 143.038C32.4008 143.409 32.3167 143.742 32.1484 144.037C31.9802 144.333 31.7145 144.567 31.3516 144.74C30.9886 144.913 30.5162 145 29.9345 145H27.2662ZM28.1605 144.207H29.9345C30.5186 144.207 30.9333 144.094 31.1785 143.868C31.4261 143.639 31.5499 143.363 31.5499 143.038C31.5499 142.788 31.4862 142.558 31.3588 142.346C31.2314 142.132 31.0499 141.962 30.8143 141.834C30.5787 141.704 30.2999 141.639 29.9778 141.639H28.1605V144.207ZM28.1605 140.861H29.8191C30.0883 140.861 30.3311 140.808 30.5475 140.702C30.7662 140.596 30.9393 140.447 31.0667 140.255C31.1965 140.062 31.2614 139.837 31.2614 139.577C31.2614 139.252 31.1484 138.977 30.9225 138.751C30.6965 138.523 30.3383 138.409 29.848 138.409H28.1605V140.861ZM34.3029 147.077C34.1587 147.077 34.03 147.065 33.9171 147.041C33.8041 147.019 33.726 146.998 33.6827 146.976L33.899 146.226C34.1058 146.279 34.2885 146.298 34.4471 146.284C34.6058 146.269 34.7464 146.198 34.869 146.071C34.994 145.946 35.1082 145.743 35.2115 145.462L35.3702 145.029L33.3221 139.462H34.2452L35.774 143.875H35.8317L37.3606 139.462H38.2837L35.9327 145.808C35.8269 146.094 35.6959 146.331 35.5397 146.518C35.3834 146.708 35.2019 146.849 34.9952 146.94C34.7909 147.031 34.5601 147.077 34.3029 147.077Z" fill="#F9F9FB"/>
<path d="M59.1012 135.193C59.1012 135.193 57.5087 139.489 57.0134 140.814C57.0134 140.814 55.894 143.783 55.8139 144.022C55.7091 144.335 55.4639 144.985 55.1171 144.985C54.6656 144.985 54.3989 144.268 54.2982 144.022C53.968 143.21 53.8276 142.294 53.6914 141.436C53.5366 140.457 53.4514 139.468 53.4363 138.478C53.4311 138.123 53.492 137.769 53.6163 137.434L54.4418 135.192H52.4399C52.4399 135.192 50.8466 139.488 50.3513 140.813C50.3513 140.813 49.2318 143.781 49.1518 144.02C49.0477 144.334 48.8017 144.984 48.4558 144.984C48.0034 144.984 47.7368 144.266 47.6369 144.02C47.3067 143.208 47.1655 142.293 47.0293 141.435C46.7113 139.366 46.6871 137.265 46.9575 135.19H44.0771C44.0771 135.19 46.2409 141.724 46.884 143.237C47.2018 143.989 48.0051 145.992 49.1955 145.992C50.386 145.992 50.7929 145.029 51.1768 144.019C51.3725 143.507 51.9347 141.99 52.5398 140.355C53.0153 141.721 53.4297 142.908 53.547 143.237C53.8202 144.004 54.6689 145.992 55.8585 145.992C57.0481 145.992 57.4567 145.029 57.8398 144.019C58.3269 142.741 61.1089 135.19 61.1089 135.19L59.1012 135.193Z" fill="white"/>
<path d="M106.81 135.582V145.791H104.974V135.193C105.932 135.193 109.961 135.174 110.753 135.234C111.661 135.303 112.569 135.449 113.25 136.078C113.607 136.409 113.84 136.852 113.818 137.332C113.741 139.106 111.454 139.573 110.059 140.08C109.833 140.162 109.581 140.272 109.51 140.491C109.439 140.711 109.573 140.925 109.703 141.112C110.922 142.862 112.333 144.516 114.078 145.805H111.456C111.456 145.805 110.818 145.238 110.548 144.949C109.634 143.99 108.826 142.945 108.138 141.829C107.986 141.578 107.836 141.291 107.913 141.012C107.978 140.777 108.186 140.61 108.395 140.473C109.43 139.801 110.983 139.589 111.646 138.473C112.076 137.748 111.983 136.76 111.347 136.168C110.823 135.682 110.018 135.587 109.319 135.575C108.511 135.561 107.697 135.585 106.892 135.585L106.81 135.582Z" fill="white"/>
<path d="M82.839 135.193H80.08C82.0332 138.124 82.55 141.258 82.4072 144.494C82.0043 144.259 81.0236 143.779 78.9804 140.494C78.088 139.058 77.7949 138.573 76.8703 137.156C76.318 136.311 75.6146 135.001 74.387 135.001C73.8356 135.001 73.5615 135.196 73.5615 135.196V145.804H76.3196C74.3664 142.873 73.8504 139.739 73.9933 136.503C74.5637 136.503 76.3048 139.637 76.8051 140.499C77.359 141.445 80.1411 146 82.0134 146C81.9977 146 82.0283 146 82.0134 146C82.5649 146 82.839 145.806 82.839 145.806V135.193Z" fill="white"/>
<path d="M66.6285 135.017C63.3849 135.017 60.7548 137.469 60.7548 140.494C60.7548 143.519 63.3849 145.97 66.6285 145.97C69.8721 145.97 72.5022 143.518 72.5022 140.494C72.5022 137.47 69.8737 135.017 66.6285 135.017ZM66.678 145.608C64.7198 145.608 63.1323 143.32 63.1323 140.498C63.1323 137.676 64.7198 135.388 66.678 135.388C68.6362 135.388 70.2279 137.676 70.2279 140.498C70.2279 143.32 68.6354 145.608 66.678 145.608Z" fill="white"/>
<path d="M123.258 145.802V143.189C121.404 145.011 119.263 145.503 117.212 145.39V135.198H115.313V145.8L123.258 145.802Z" fill="white"/>
<path d="M87.3892 135.194H84.4412V145.802H87.3909C92.2616 145.802 93.9523 143.423 93.9523 140.495C93.9523 137.567 92.2591 135.194 87.3892 135.194ZM87.4437 145.445C87.0702 145.445 86.6987 145.393 86.3408 145.292V135.707C86.6985 135.604 87.07 135.551 87.4437 135.55C90.8862 135.55 91.9016 137.764 91.9016 140.496C91.9016 143.228 90.8862 145.445 87.4437 145.445Z" fill="white"/>
<path d="M131.036 142.047C131.67 143.752 132.429 145.802 132.429 145.802H134.514L131.161 136.974C130.776 135.963 130.365 135 129.18 135C127.995 135 127.144 136.988 126.869 137.755C126.552 138.644 124.062 145.802 124.062 145.802H126.942C126.785 144.556 126.73 143.301 126.777 142.047H131.036ZM127.02 139.558C127.156 138.701 127.295 137.785 127.627 136.972C127.727 136.726 127.994 136.008 128.446 136.008C128.792 136.008 129.038 136.66 129.142 136.972C129.225 137.211 130.342 140.18 130.342 140.18C130.471 140.525 130.672 141.073 130.906 141.694H126.795C126.833 140.982 126.908 140.269 127.02 139.558Z" fill="white"/>
<path d="M103.209 145.802L103.192 143.189C101.337 145.011 99.2136 145.503 97.1655 145.39V140.629C98.4038 140.551 99.6941 140.841 100.818 141.944L100.827 140.618V140.383L100.818 139.055C99.6941 140.158 98.4063 140.446 97.1655 140.369V135.602C99.207 135.484 101.088 135.825 102.944 137.647L102.962 135.194L95.2642 135.197V145.8H97.163V145.795L103.209 145.802Z" fill="white"/>
<path d="M144.708 135.193H141.95C143.902 138.124 144.419 141.258 144.276 144.494C143.873 144.259 142.892 143.779 140.85 140.494C139.957 139.058 139.664 138.573 138.739 137.156C138.188 136.311 137.486 135.001 136.256 135.001C135.704 135.001 135.43 135.196 135.43 135.196V145.804H138.188C136.235 142.873 135.719 139.739 135.863 136.503C136.432 136.503 138.174 139.637 138.675 140.499C139.228 141.445 142.01 146 143.882 146C143.867 146 143.897 146 143.882 146C144.434 146 144.708 145.806 144.708 145.806V135.193Z" fill="white"/>
<path d="M149.514 135.194H146.567V145.802H149.516C154.386 145.802 156.077 143.423 156.077 140.495C156.077 137.567 154.384 135.194 149.514 135.194ZM149.569 145.445C149.195 145.445 148.824 145.393 148.466 145.292V135.707C148.823 135.604 149.195 135.551 149.569 135.55C153.011 135.55 154.027 137.764 154.027 140.496C154.027 143.228 153.011 145.445 149.569 145.445Z" fill="white"/>
</g>
</svg>
