<svg width="186" height="125" viewBox="0 0 186 125" fill="none" xmlns="http://www.w3.org/2000/svg">
<path d="M49.3277 0.505549C48.5367 0.16853 47.6421 0 46.6437 0C42.9741 0 40.6985 1.78239 39.8169 5.34722C39.5057 6.65649 39.2657 7.77778 39.0973 8.71112C39.0323 9.1259 39 9.47589 39 9.76114C39 11.1222 39.4862 12.1722 40.4587 12.9111C41.4441 13.637 42.7084 14 44.2513 14C46.1184 14 47.6096 13.5658 48.7247 12.6973C49.8397 11.8158 50.6243 10.487 51.0781 8.71112C51.3503 7.62223 51.5837 6.5009 51.7783 5.34722C51.8431 4.9324 51.8754 4.5889 51.8754 4.31666C51.8754 3.40927 51.6487 2.63149 51.1948 1.98336C50.741 1.32221 50.1187 0.829635 49.3277 0.505549ZM48.1607 5.40556C48.0051 6.31295 47.7782 7.3759 47.48 8.59448C47.2595 9.47589 46.89 10.1305 46.3714 10.5583C45.8656 10.9861 45.2498 11.2 44.5236 11.2C43.2789 11.2 42.6565 10.6037 42.6565 9.41111C42.6565 9.1259 42.6824 8.85374 42.7343 8.59448C42.9676 7.33702 43.201 6.27407 43.4344 5.40556C43.6549 4.52407 44.0179 3.86945 44.5236 3.44166C45.0423 3.01387 45.6646 2.80002 46.3908 2.80002C47.6225 2.80002 48.2385 3.38981 48.2385 4.56944C48.2385 4.85464 48.2125 5.13332 48.1607 5.40556ZM65.3631 1.0889C64.4944 0.492576 63.3404 0.194436 61.9011 0.194436H56.7275C56.5979 0.194436 56.4747 0.239802 56.358 0.330572C56.2413 0.421304 56.1701 0.537981 56.1441 0.680565L53.4601 13.3195C53.4342 13.4491 53.4536 13.5658 53.5184 13.6695C53.5962 13.7602 53.7064 13.8055 53.8489 13.8055H56.4941C56.6238 13.8055 56.7469 13.7602 56.8636 13.6695C56.9803 13.5787 57.0517 13.462 57.0776 13.3195L57.9724 9.06111H60.598C62.2966 9.06111 63.6321 8.70464 64.6046 7.99164C65.5901 7.27872 66.2448 6.17685 66.569 4.68611C66.6468 4.33612 66.6857 3.99906 66.6857 3.67502C66.6857 2.54724 66.2448 1.68518 65.3631 1.0889ZM62.9709 4.64723C62.8413 5.20464 62.5689 5.63238 62.154 5.93056C61.7519 6.2287 61.2786 6.37778 60.7341 6.37778H58.4975L59.2365 2.89723H61.5705C62.102 2.89723 62.4781 3.00094 62.6985 3.20835C62.9188 3.40278 63.0291 3.68795 63.0291 4.06389C63.0291 4.23242 63.0097 4.42685 62.9709 4.64723ZM80.7926 0.330572C80.8445 0.408331 80.8704 0.486129 80.8704 0.563888C80.8704 0.602767 80.8639 0.641646 80.851 0.680565L80.4036 2.7611C80.3776 2.90372 80.3063 3.02036 80.1897 3.11113C80.086 3.20186 79.9627 3.24723 79.8201 3.24723H76.3776L74.2186 13.3195C74.1927 13.462 74.1214 13.5787 74.0047 13.6695C73.8881 13.7602 73.7649 13.8055 73.6351 13.8055H71.0678C70.9252 13.8055 70.815 13.7602 70.7373 13.6695C70.6595 13.5658 70.6335 13.4491 70.6595 13.3195L72.8182 3.24723H69.3563C69.2136 3.24723 69.1034 3.20186 69.0258 3.11113C68.9608 3.00743 68.9414 2.89075 68.9673 2.7611L69.4147 0.680565C69.4405 0.537981 69.512 0.421304 69.6287 0.330572C69.7454 0.239802 69.8685 0.194436 69.9982 0.194436H80.4619C80.6045 0.194436 80.7147 0.239802 80.7926 0.330572ZM87.2013 0.330572C87.2532 0.408331 87.2792 0.486129 87.2792 0.563888C87.2792 0.602767 87.2726 0.641646 87.2597 0.680565L84.5757 13.3195C84.5497 13.462 84.4784 13.5787 84.3618 13.6695C84.245 13.7602 84.1218 13.8055 83.9922 13.8055H81.3666C81.2238 13.8055 81.1136 13.7602 81.0359 13.6695C80.9581 13.5658 80.9321 13.4491 80.9581 13.3195L83.6615 0.680565C83.6875 0.537981 83.7588 0.421304 83.8755 0.330572C83.9922 0.239802 84.1154 0.194436 84.245 0.194436H86.8706C87.0133 0.194436 87.1236 0.239802 87.2013 0.330572ZM104.39 0.330572C104.442 0.408331 104.468 0.486129 104.468 0.563888C104.468 0.602767 104.462 0.641646 104.449 0.680565L101.765 13.3195C101.739 13.462 101.667 13.5787 101.551 13.6695C101.434 13.7602 101.311 13.8055 101.181 13.8055H98.8277C98.685 13.8055 98.5748 13.7602 98.4971 13.6695C98.4322 13.5658 98.4127 13.4491 98.4387 13.3195L99.9557 6.14446L96.98 10.0916C96.8504 10.2343 96.7272 10.3445 96.6105 10.4222C96.4938 10.5 96.3576 10.5389 96.2019 10.5389H95.1906C94.9183 10.5389 94.7303 10.3898 94.6266 10.0916L93.2458 5.96944L91.6898 13.3195C91.6638 13.462 91.5925 13.5787 91.4758 13.6695C91.3591 13.7602 91.2359 13.8055 91.1063 13.8055H88.7724C88.6297 13.8055 88.5195 13.7602 88.4417 13.6695C88.364 13.5787 88.3379 13.462 88.364 13.3195L91.048 0.680565C91.0738 0.537981 91.1452 0.421304 91.2619 0.330572C91.3786 0.239802 91.5083 0.194436 91.6508 0.194436H93.7513C94.0626 0.194436 94.2635 0.33702 94.3544 0.622226L96.4744 6.74723L101.2 0.622226C101.265 0.518521 101.356 0.421304 101.473 0.330572C101.602 0.239802 101.758 0.194436 101.94 0.194436H104.059C104.202 0.194436 104.312 0.239802 104.39 0.330572ZM111.775 0.330572C111.827 0.408331 111.853 0.486129 111.853 0.563888C111.853 0.602767 111.846 0.641646 111.833 0.680565L109.149 13.3195C109.123 13.462 109.052 13.5787 108.935 13.6695C108.818 13.7602 108.695 13.8055 108.565 13.8055H105.94C105.797 13.8055 105.687 13.7602 105.609 13.6695C105.532 13.5658 105.505 13.4491 105.532 13.3195L108.235 0.680565C108.261 0.537981 108.332 0.421304 108.449 0.330572C108.565 0.239802 108.688 0.194436 108.818 0.194436H111.444C111.587 0.194436 111.697 0.239802 111.775 0.330572ZM124.821 1.86668C125.249 2.39813 125.463 2.92963 125.463 3.46112C125.463 3.61668 125.456 3.72687 125.443 3.79165C125.417 3.90833 125.359 4.00555 125.269 4.08335C125.19 4.1611 125.093 4.19999 124.977 4.19999H122.37C122.085 4.19999 121.89 4.08983 121.787 3.86945C121.774 3.57131 121.618 3.31854 121.32 3.11113C121.022 2.90372 120.633 2.80002 120.153 2.80002C119.583 2.80002 119.11 2.90372 118.733 3.11113C118.371 3.31854 118.144 3.62316 118.053 4.02501C118.04 4.08983 118.033 4.17408 118.033 4.27778C118.033 4.5889 118.215 4.84816 118.578 5.05556C118.954 5.25 119.608 5.45092 120.542 5.65833C121.995 5.94354 123.051 6.35187 123.712 6.88336C124.386 7.41486 124.724 8.12129 124.724 9.00278C124.724 9.30092 124.685 9.625 124.607 9.97499C124.322 11.2972 123.628 12.3019 122.526 12.9889C121.436 13.663 119.978 14 118.15 14C117.008 14 116.03 13.8445 115.213 13.5334C114.409 13.2222 113.8 12.8074 113.384 12.2889C112.983 11.7704 112.782 11.1935 112.782 10.5583C112.782 10.4546 112.795 10.2991 112.821 10.0916C112.847 9.97499 112.898 9.87778 112.977 9.80002C113.067 9.72222 113.171 9.68334 113.287 9.68334H115.777C115.933 9.68334 116.049 9.70925 116.127 9.76114C116.218 9.81299 116.308 9.90372 116.399 10.0334C116.49 10.3704 116.698 10.6491 117.022 10.8695C117.359 11.0898 117.82 11.2 118.403 11.2C119.142 11.2 119.738 11.0833 120.192 10.85C120.646 10.6166 120.918 10.2991 121.009 9.89723C121.022 9.84538 121.028 9.76762 121.028 9.66388C121.028 9.33983 120.827 9.08702 120.426 8.90552C120.023 8.71112 119.284 8.48425 118.208 8.22499C116.95 7.95276 115.998 7.54447 115.349 7C114.7 6.4426 114.376 5.71667 114.376 4.82221C114.376 4.5111 114.415 4.19354 114.493 3.86945C114.753 2.66388 115.394 1.71761 116.419 1.03056C117.456 0.343507 118.792 0 120.426 0C121.411 0 122.286 0.175016 123.051 0.525008C123.816 0.875 124.406 1.32221 124.821 1.86668ZM143 0.563888C143 0.602767 142.993 0.641646 142.98 0.680565L140.296 13.3195C140.27 13.462 140.199 13.5787 140.082 13.6695C139.966 13.7602 139.843 13.8055 139.713 13.8055H137.359C137.217 13.8055 137.107 13.7602 137.029 13.6695C136.964 13.5658 136.944 13.4491 136.97 13.3195L138.488 6.14446L135.512 10.0916C135.382 10.2343 135.259 10.3445 135.142 10.4222C135.026 10.5 134.889 10.5389 134.734 10.5389H133.722C133.45 10.5389 133.262 10.3898 133.158 10.0916L131.777 5.96944L130.221 13.3195C130.195 13.462 130.124 13.5787 130.007 13.6695C129.891 13.7602 129.768 13.8055 129.638 13.8055H127.304C127.162 13.8055 127.051 13.7602 126.974 13.6695C126.895 13.5787 126.87 13.462 126.895 13.3195L129.58 0.680565C129.606 0.537981 129.677 0.421304 129.794 0.330572C129.91 0.239802 130.04 0.194436 130.183 0.194436H132.283C132.594 0.194436 132.795 0.33702 132.886 0.622226L135.006 6.74723L139.732 0.622226C139.797 0.518521 139.888 0.421304 140.005 0.330572C140.134 0.239802 140.29 0.194436 140.471 0.194436H142.591C142.734 0.194436 142.844 0.239802 142.922 0.330572C142.974 0.408331 143 0.486129 143 0.563888Z" fill="white"/>
<path d="M20.0195 61.18H9.43949L4.01149 92H0.975487L12.4755 26.864L15.5115 26.864L9.99149 58.236H20.4795L25.9995 26.864H29.0355L17.6275 92H14.5915L20.0195 61.18ZM36.7311 79.12H27.6231L24.0351 92H20.9071L39.7671 26.864H42.8031L38.9391 92H35.9031L36.7311 79.12ZM28.4511 76.36H36.9151L39.2151 42.872L41.0551 28.612L37.8351 42.872L28.4511 76.36ZM45.0694 92H42.2174L53.7174 26.864H56.2014L59.6974 72.68L60.0654 86.664L62.1814 69.276L69.7254 26.864H72.5774L61.0774 92H58.5934L55.0974 45.356L54.7294 31.464L52.6134 49.036L45.0694 92ZM78.561 26.864H84.817C90.981 26.864 94.753 30.728 93.373 38.364L85.737 81.236C84.541 88.78 80.309 92 73.317 92H67.061L78.561 26.864ZM81.045 29.624L70.649 89.148H73.133C78.837 89.148 81.689 86.848 82.793 80.776L90.337 38.18C91.349 32.016 88.865 29.624 84.173 29.624H81.045ZM89.4766 92L100.885 26.864L107.601 26.864C114.961 26.864 116.709 30.912 115.697 36.432L113.397 49.404C112.569 54.556 110.545 57.132 105.945 57.96C110.545 59.156 111.373 62.836 110.361 67.988L107.693 83.168C106.589 89.332 104.013 92 96.2846 92H89.4766ZM103.369 29.44L98.5846 56.672H101.437C107.233 56.672 109.349 54.832 110.361 49.404L112.661 36.34C113.397 32.016 112.477 29.44 107.049 29.44H103.369ZM98.1246 59.34L92.8806 89.24H96.4686C102.265 89.24 103.921 86.94 104.749 82.34L107.325 67.528C108.337 62.468 107.233 59.34 100.977 59.34H98.1246ZM120.198 92.644C113.758 92.644 111.366 88.32 112.562 82.156L120.658 36.34C122.038 29.072 125.074 26.312 130.134 26.312C135.838 26.312 139.058 29.992 137.954 36.524L129.674 83.26C128.57 89.332 125.994 92.644 120.198 92.644ZM120.382 89.792C124.338 89.792 125.81 87.492 126.638 82.892L134.918 36.248C135.746 31.648 134.09 28.98 129.858 28.98C126.546 28.98 124.522 31.188 123.786 35.88L115.506 82.432C114.77 87.032 116.058 89.792 120.382 89.792ZM142.796 92.644C136.356 92.644 133.964 88.32 135.16 82.156L143.256 36.34C144.636 29.072 147.672 26.312 152.732 26.312C158.436 26.312 161.656 29.992 160.552 36.524L152.272 83.26C151.168 89.332 148.592 92.644 142.796 92.644ZM142.98 89.792C146.936 89.792 148.408 87.492 149.236 82.892L157.516 36.248C158.344 31.648 156.688 28.98 152.456 28.98C149.144 28.98 147.12 31.188 146.384 35.88L138.104 82.432C137.368 87.032 138.656 89.792 142.98 89.792ZM170.909 52.992L163.641 67.436L159.409 92H156.373L167.873 26.864H170.817L165.665 56.12L163.549 64.676L166.309 58.052L182.317 26.864H185.261L173.025 50.876L174.681 92H171.645L170.633 59.248L170.909 52.992Z" fill="#F9F9FB"/>
<g opacity="0.95">
<path d="M27.2662 122V114.615H29.848C30.3624 114.615 30.7867 114.704 31.1208 114.882C31.4549 115.058 31.7037 115.294 31.8672 115.593C32.0306 115.888 32.1124 116.216 32.1124 116.577C32.1124 116.894 32.0559 117.156 31.9429 117.363C31.8323 117.57 31.6857 117.733 31.503 117.853C31.3227 117.974 31.1268 118.062 30.9153 118.12V118.192C31.1412 118.207 31.3684 118.286 31.5968 118.43C31.8251 118.575 32.0162 118.781 32.1701 119.05C32.3239 119.32 32.4008 119.649 32.4008 120.038C32.4008 120.409 32.3167 120.742 32.1484 121.037C31.9802 121.333 31.7145 121.567 31.3516 121.74C30.9886 121.913 30.5162 122 29.9345 122H27.2662ZM28.1605 121.207H29.9345C30.5186 121.207 30.9333 121.094 31.1785 120.868C31.4261 120.639 31.5499 120.363 31.5499 120.038C31.5499 119.788 31.4862 119.558 31.3588 119.346C31.2314 119.132 31.0499 118.962 30.8143 118.834C30.5787 118.704 30.2999 118.639 29.9778 118.639H28.1605V121.207ZM28.1605 117.861H29.8191C30.0883 117.861 30.3311 117.808 30.5475 117.702C30.7662 117.596 30.9393 117.447 31.0667 117.255C31.1965 117.062 31.2614 116.837 31.2614 116.577C31.2614 116.252 31.1484 115.977 30.9225 115.751C30.6965 115.523 30.3383 115.409 29.848 115.409H28.1605V117.861ZM34.3029 124.077C34.1587 124.077 34.03 124.065 33.9171 124.041C33.8041 124.019 33.726 123.998 33.6827 123.976L33.899 123.226C34.1058 123.279 34.2885 123.298 34.4471 123.284C34.6058 123.269 34.7464 123.198 34.869 123.071C34.994 122.946 35.1082 122.743 35.2115 122.462L35.3702 122.029L33.3221 116.462H34.2452L35.774 120.875H35.8317L37.3606 116.462H38.2837L35.9327 122.808C35.8269 123.094 35.6959 123.331 35.5397 123.518C35.3834 123.708 35.2019 123.849 34.9952 123.94C34.7909 124.031 34.5601 124.077 34.3029 124.077Z" fill="#F9F9FB"/>
<path d="M59.1012 112.193C59.1012 112.193 57.5087 116.489 57.0134 117.814C57.0134 117.814 55.894 120.783 55.8139 121.022C55.7091 121.335 55.4639 121.985 55.1171 121.985C54.6656 121.985 54.3989 121.268 54.2982 121.022C53.968 120.21 53.8276 119.294 53.6914 118.436C53.5366 117.457 53.4514 116.468 53.4363 115.478C53.4311 115.123 53.492 114.769 53.6163 114.434L54.4418 112.192H52.4399C52.4399 112.192 50.8466 116.488 50.3513 117.813C50.3513 117.813 49.2318 120.781 49.1518 121.02C49.0477 121.334 48.8017 121.984 48.4558 121.984C48.0034 121.984 47.7368 121.266 47.6369 121.02C47.3067 120.208 47.1655 119.293 47.0293 118.435C46.7113 116.366 46.6871 114.265 46.9575 112.19H44.0771C44.0771 112.19 46.2409 118.724 46.884 120.237C47.2018 120.989 48.0051 122.992 49.1955 122.992C50.386 122.992 50.7929 122.029 51.1768 121.019C51.3725 120.507 51.9347 118.99 52.5398 117.355C53.0153 118.721 53.4297 119.908 53.547 120.237C53.8202 121.004 54.6689 122.992 55.8585 122.992C57.0481 122.992 57.4567 122.029 57.8398 121.019C58.3269 119.741 61.1089 112.19 61.1089 112.19L59.1012 112.193Z" fill="white"/>
<path d="M106.81 112.582V122.791H104.974V112.193C105.932 112.193 109.961 112.174 110.753 112.234C111.661 112.303 112.569 112.449 113.25 113.078C113.607 113.409 113.84 113.852 113.818 114.332C113.741 116.106 111.454 116.573 110.059 117.08C109.833 117.162 109.581 117.272 109.51 117.491C109.439 117.711 109.573 117.925 109.703 118.112C110.922 119.862 112.333 121.516 114.078 122.805H111.456C111.456 122.805 110.818 122.238 110.548 121.949C109.634 120.99 108.826 119.945 108.138 118.829C107.986 118.578 107.836 118.291 107.913 118.012C107.978 117.777 108.186 117.61 108.395 117.473C109.43 116.801 110.983 116.589 111.646 115.473C112.076 114.748 111.983 113.76 111.347 113.168C110.823 112.682 110.018 112.587 109.319 112.575C108.511 112.561 107.697 112.585 106.892 112.585L106.81 112.582Z" fill="white"/>
<path d="M82.839 112.193H80.08C82.0332 115.124 82.55 118.258 82.4072 121.494C82.0043 121.259 81.0236 120.779 78.9804 117.494C78.088 116.058 77.7949 115.573 76.8703 114.156C76.318 113.311 75.6146 112.001 74.387 112.001C73.8356 112.001 73.5615 112.196 73.5615 112.196V122.804H76.3196C74.3664 119.873 73.8504 116.739 73.9933 113.503C74.5637 113.503 76.3048 116.637 76.8051 117.499C77.359 118.445 80.1411 123 82.0134 123C81.9977 123 82.0283 123 82.0134 123C82.5649 123 82.839 122.806 82.839 122.806V112.193Z" fill="white"/>
<path d="M66.6285 112.017C63.3849 112.017 60.7548 114.469 60.7548 117.494C60.7548 120.519 63.3849 122.97 66.6285 122.97C69.8721 122.97 72.5022 120.518 72.5022 117.494C72.5022 114.47 69.8737 112.017 66.6285 112.017ZM66.678 122.608C64.7198 122.608 63.1323 120.32 63.1323 117.498C63.1323 114.676 64.7198 112.388 66.678 112.388C68.6362 112.388 70.2279 114.676 70.2279 117.498C70.2279 120.32 68.6354 122.608 66.678 122.608Z" fill="white"/>
<path d="M123.258 122.802V120.189C121.404 122.011 119.263 122.503 117.212 122.39V112.198H115.313V122.8L123.258 122.802Z" fill="white"/>
<path d="M87.3892 112.194H84.4412V122.802H87.3909C92.2616 122.802 93.9523 120.423 93.9523 117.495C93.9523 114.567 92.2591 112.194 87.3892 112.194ZM87.4437 122.445C87.0702 122.445 86.6987 122.393 86.3408 122.292V112.707C86.6985 112.604 87.07 112.551 87.4437 112.55C90.8862 112.55 91.9016 114.764 91.9016 117.496C91.9016 120.228 90.8862 122.445 87.4437 122.445Z" fill="white"/>
<path d="M131.036 119.047C131.67 120.752 132.429 122.802 132.429 122.802H134.514L131.161 113.974C130.776 112.963 130.365 112 129.18 112C127.995 112 127.144 113.988 126.869 114.755C126.552 115.644 124.062 122.802 124.062 122.802H126.942C126.785 121.556 126.73 120.301 126.777 119.047H131.036ZM127.02 116.558C127.156 115.701 127.295 114.785 127.627 113.972C127.727 113.726 127.994 113.008 128.446 113.008C128.792 113.008 129.038 113.66 129.142 113.972C129.225 114.211 130.342 117.18 130.342 117.18C130.471 117.525 130.672 118.073 130.906 118.694H126.795C126.833 117.982 126.908 117.269 127.02 116.558Z" fill="white"/>
<path d="M103.209 122.802L103.192 120.189C101.337 122.011 99.2136 122.503 97.1655 122.39V117.629C98.4038 117.551 99.6941 117.841 100.818 118.944L100.827 117.618V117.383L100.818 116.055C99.6941 117.158 98.4063 117.446 97.1655 117.369V112.602C99.207 112.484 101.088 112.825 102.944 114.647L102.962 112.194L95.2642 112.197V122.8H97.163V122.795L103.209 122.802Z" fill="white"/>
<path d="M144.708 112.193H141.95C143.902 115.124 144.419 118.258 144.276 121.494C143.873 121.259 142.892 120.779 140.85 117.494C139.957 116.058 139.664 115.573 138.739 114.156C138.188 113.311 137.486 112.001 136.256 112.001C135.704 112.001 135.43 112.196 135.43 112.196V122.804H138.188C136.235 119.873 135.719 116.739 135.863 113.503C136.432 113.503 138.174 116.637 138.675 117.499C139.228 118.445 142.01 123 143.882 123C143.867 123 143.897 123 143.882 123C144.434 123 144.708 122.806 144.708 122.806V112.193Z" fill="white"/>
<path d="M149.514 112.194H146.567V122.802H149.516C154.386 122.802 156.077 120.423 156.077 117.495C156.077 114.567 154.384 112.194 149.514 112.194ZM149.569 122.445C149.195 122.445 148.824 122.393 148.466 122.292V112.707C148.823 112.604 149.195 112.551 149.569 112.55C153.011 112.55 154.027 114.764 154.027 117.496C154.027 120.228 153.011 122.445 149.569 122.445Z" fill="white"/>
</g>
</svg>
