<svg width="1920" height="1080" viewBox="0 0 1920 1080" fill="none" xmlns="http://www.w3.org/2000/svg">
<path fill-rule="evenodd" clip-rule="evenodd" d="M1920 0H0V1080H1920V0ZM974.482 617.392C980.265 612.984 984 606.001 984 598.141C984 584.808 973.255 574 960 574C946.745 574 936 584.808 936 598.141C936 606.004 939.738 612.989 945.524 617.397C945.514 617.439 945.506 617.482 945.498 617.525L937.861 658.593C937.435 660.883 939.182 663 941.499 663H978.606C980.927 663 982.675 660.877 982.243 658.584L974.508 617.516L974.499 617.47C974.494 617.444 974.488 617.418 974.482 617.392Z" fill="#0E152C"/>
</svg>
