<svg width="404" height="89" viewBox="0 0 404 89" fill="none" xmlns="http://www.w3.org/2000/svg">
<path d="M92.6875 12.7313L139.977 88.7713H141.6L94.0572 12.3383L92.6875 12.7313Z" fill="white"/>
<path d="M72.1163 19.7162L125.338 88.7713H127.383L73.8467 19.0711L72.1163 19.7162Z" fill="white"/>
<path d="M9.46713 66.3634L45.0376 88.7713H47.7434L10.329 65.2067C10.0484 65.5923 9.75442 65.9704 9.46713 66.3634Z" fill="white"/>
<path d="M36.0782 39.5511L91.1509 88.7861H93.2822L37.234 38.6835C36.8666 38.9653 36.4657 39.2471 36.0782 39.5511Z" fill="white"/>
<path d="M53.302 28.54L109.457 88.7714H111.395L54.6049 27.843L53.302 28.54Z" fill="white"/>
<path d="M21.333 52.3863L69.8916 88.7713H72.711L22.6024 51.1035C22.1748 51.5262 21.7539 51.9562 21.333 52.3863Z" fill="white"/>
<path d="M0 81.5344L13.7832 88.7713H16.91L0.68147 80.2516L0 81.5344Z" fill="white"/>
<path d="M265.629 3.61097L235.484 88.7713H236.92L266.985 3.78152L265.629 3.61097Z" fill="white"/>
<path d="M348.729 27.1459L291.478 88.7713H293.396L350.012 27.8355L348.729 27.1459Z" fill="white"/>
<path d="M329.287 18.4631L275.511 88.7713H277.261L330.643 18.9747L329.287 18.4631Z" fill="white"/>
<path d="M114.067 7.56309L153.419 88.7712H154.936L115.403 7.28874L114.067 7.56309Z" fill="white"/>
<path d="M402.693 79.3915L384.954 88.7714H388.716L403.515 80.9709C403.261 80.4444 402.993 79.9106 402.693 79.3915Z" fill="white"/>
<path d="M308.529 11.7896L261.052 88.7713H262.937L310.299 12.279L308.529 11.7896Z" fill="white"/>
<path d="M380.939 50.3769L330.042 88.7713H332.42L381.981 51.415L380.939 50.3769Z" fill="white"/>
<path d="M393.259 64.532L354.923 88.7714H357.595L394.081 65.7036L393.259 64.532Z" fill="white"/>
<path d="M365.9 37.7122L309.157 88.7713H311.649L367.383 38.8096L365.9 37.7122Z" fill="white"/>
<path d="M179.122 0.407789L189.464 88.7713H190.8L180.465 0.355901L179.122 0.407789Z" fill="white"/>
<path d="M287.443 6.99221L248.024 88.7713H249.541L288.859 7.25916L287.443 6.99221Z" fill="white"/>
<path d="M135.393 4.01136L165.799 88.7712H167.463L137.184 3.7815L135.393 4.01136Z" fill="white"/>
<path d="M157.268 1.68309L177.819 88.7713H179.202L158.624 1.57187L157.268 1.68309Z" fill="white"/>
<path d="M243.741 1.45329L223.531 88.7713H225.134L245.505 1.59418L243.741 1.45329Z" fill="white"/>
<path d="M222.302 0.333635L212.146 88.7713H213.483L223.638 0.378145L222.302 0.333635Z" fill="white"/>
<path d="M200.922 0V88.7713H202.258V0H200.922Z" fill="white"/>
</svg>
