<svg width="48" height="48" viewBox="0 0 48 48" fill="none" xmlns="http://www.w3.org/2000/svg">
<path d="M11.3015 16.4117C11.1332 16.4117 10.9716 16.3448 10.8527 16.2258C10.7335 16.1067 10.6666 15.9452 10.6666 15.7768V11.3019C10.6666 11.1335 10.7335 10.972 10.8527 10.853C10.9716 10.7339 11.1332 10.667 11.3015 10.667H15.779C15.9474 10.667 16.1089 10.7339 16.228 10.853C16.347 10.972 16.4139 11.1335 16.4139 11.3019C16.4139 11.4703 16.347 11.6318 16.228 11.7509C16.1089 11.8699 15.9474 11.9368 15.779 11.9368H11.9365V15.7781C11.9362 15.9462 11.8692 16.1075 11.7501 16.2262C11.6311 16.3451 11.4698 16.4117 11.3015 16.4117Z" fill="white"/>
<path d="M36.6984 16.4117C36.53 16.4117 36.3685 16.3448 36.2494 16.2258C36.1304 16.1067 36.0635 15.9452 36.0635 15.7768V11.9368H32.2209C32.0526 11.9368 31.891 11.8699 31.7719 11.7509C31.6528 11.6318 31.586 11.4703 31.586 11.3019C31.586 11.1335 31.6528 10.972 31.7719 10.853C31.891 10.7339 32.0526 10.667 32.2209 10.667H36.6984C36.8668 10.667 37.0282 10.7339 37.1473 10.853C37.2664 10.972 37.3333 11.1335 37.3333 11.3019V15.7781C37.3329 15.9462 37.2659 16.1075 37.1469 16.2262C37.0278 16.3451 36.8665 16.4117 36.6984 16.4117Z" fill="white"/>
<path d="M15.779 37.3335H11.3015C11.1332 37.3335 10.9716 37.2666 10.8527 37.1476C10.7335 37.0285 10.6666 36.867 10.6666 36.6986V32.2212C10.6666 32.0528 10.7335 31.8913 10.8527 31.7723C10.9716 31.6532 11.1332 31.5863 11.3015 31.5863C11.4699 31.5863 11.6314 31.6532 11.7506 31.7723C11.8695 31.8913 11.9365 32.0528 11.9365 32.2212V36.0637H15.779C15.9474 36.0637 16.1089 36.1306 16.228 36.2497C16.347 36.3687 16.4139 36.5302 16.4139 36.6986C16.4139 36.867 16.347 37.0285 16.228 37.1476C16.1089 37.2666 15.9474 37.3335 15.779 37.3335Z" fill="white"/>
<path d="M36.6984 37.3335H32.2209C32.0526 37.3335 31.891 37.2666 31.7719 37.1476C31.6528 37.0285 31.586 36.867 31.586 36.6986C31.586 36.5302 31.6528 36.3687 31.7719 36.2497C31.891 36.1306 32.0526 36.0637 32.2209 36.0637H36.0635V32.2212C36.0635 32.0528 36.1304 31.8913 36.2494 31.7723C36.3685 31.6532 36.53 31.5863 36.6984 31.5863C36.8668 31.5863 37.0282 31.6532 37.1473 31.7723C37.2664 31.8913 37.3333 32.0528 37.3333 32.2212V36.6986C37.3333 36.867 37.2664 37.0285 37.1473 37.1476C37.0282 37.2666 36.8668 37.3335 36.6984 37.3335Z" fill="white"/>
<path d="M23.9999 31.0237C21.6744 31.0226 19.3915 30.399 17.3884 29.2178C15.3853 28.0364 13.7348 26.3407 12.6082 24.3063C12.5559 24.2121 12.5285 24.1062 12.5285 23.9984C12.5285 23.8907 12.5559 23.7846 12.6082 23.6904C13.734 21.6554 15.3846 19.9591 17.388 18.7778C19.3914 17.5966 21.6747 16.9736 24.0005 16.9736C26.3262 16.9736 28.6095 17.5966 30.6131 18.7778C32.6165 19.9591 34.2669 21.6554 35.3929 23.6904C35.445 23.7846 35.4725 23.8907 35.4725 23.9984C35.4725 24.1062 35.445 24.2121 35.3929 24.3063C34.2659 26.3407 32.6151 28.0364 30.6118 29.2176C28.6084 30.3988 26.3255 31.0224 23.9999 31.0237ZM13.8958 24.0003C14.9359 25.7539 16.4145 27.2066 18.1862 28.2156C19.9579 29.2246 21.9617 29.7553 24.0005 29.7553C26.0394 29.7553 28.0432 29.2246 29.8149 28.2156C31.5865 27.2066 33.065 25.7539 34.1051 24.0003C33.0653 22.2464 31.5868 20.7933 29.8151 19.784C28.0434 18.7748 26.0395 18.2441 24.0005 18.2441C21.9614 18.2441 19.9576 18.7748 18.1858 19.784C16.4142 20.7933 14.9357 22.2464 13.8958 24.0003Z" fill="white"/>
<path d="M24 28.9107C23.0282 28.9107 22.0784 28.6226 21.2704 28.0827C20.4624 27.5427 19.8327 26.7754 19.4609 25.8776C19.0891 24.9798 18.9919 23.9919 19.1815 23.0387C19.3712 22.0857 19.8393 21.2103 20.5264 20.5233C21.2136 19.8362 22.0892 19.3684 23.0423 19.179C23.9955 18.9896 24.9833 19.087 25.881 19.4591C26.7787 19.8311 27.5459 20.4611 28.0856 21.2691C28.6253 22.0772 28.9133 23.0273 28.913 23.999C28.9116 25.3015 28.3935 26.5502 27.4725 27.4711C26.5514 28.392 25.3025 28.9097 24 28.9107ZM24 20.3558C23.2795 20.3558 22.5751 20.5696 21.976 20.9698C21.3768 21.3702 20.9099 21.9392 20.6342 22.6048C20.3584 23.2705 20.2863 24.0031 20.4268 24.7097C20.5674 25.4165 20.9145 26.0656 21.4239 26.5751C21.9334 27.0846 22.5825 27.4316 23.2893 27.5722C23.996 27.7127 24.7285 27.6406 25.3942 27.3648C26.0598 27.0891 26.6288 26.6222 27.0291 26.0231C27.4295 25.4239 27.6432 24.7196 27.6432 23.999C27.6422 23.0332 27.258 22.1071 26.575 21.424C25.892 20.741 24.966 20.3568 24 20.3558Z" fill="white"/>
<path d="M23.9999 26.4256C23.5196 26.4256 23.0502 26.2832 22.651 26.0164C22.2516 25.7496 21.9405 25.3703 21.7567 24.9266C21.573 24.4828 21.525 23.9945 21.6187 23.5236C21.7125 23.0526 21.9439 22.6199 22.2836 22.2805C22.6233 21.941 23.056 21.7099 23.527 21.6163C23.9981 21.5228 24.4864 21.5711 24.9299 21.7549C25.3736 21.9389 25.7527 22.2503 26.0193 22.6498C26.2859 23.0492 26.4281 23.5187 26.4278 23.999C26.4272 24.6425 26.1711 25.2597 25.716 25.7145C25.2607 26.1695 24.6436 26.4253 23.9999 26.4256ZM23.9999 22.8409C23.7709 22.8409 23.5469 22.9088 23.3565 23.0361C23.1661 23.1633 23.0177 23.3441 22.9301 23.5558C22.8423 23.7674 22.8195 24.0003 22.8642 24.2249C22.9087 24.4495 23.0191 24.6559 23.181 24.8179C23.343 24.9798 23.5494 25.0902 23.774 25.1349C23.9986 25.1796 24.2315 25.1566 24.4431 25.069C24.6548 24.9813 24.8356 24.8329 24.9628 24.6424C25.0901 24.4519 25.158 24.2281 25.158 23.999C25.1576 23.6919 25.0356 23.3976 24.8184 23.1805C24.6013 22.9633 24.3069 22.8413 23.9999 22.8409Z" fill="white"/>
</svg>
