<svg width="32" height="34" viewBox="0 0 32 34" fill="none" xmlns="http://www.w3.org/2000/svg">
<path d="M16.002 33.4144C11.3788 33.4144 7.61791 25.9957 7.61791 16.8791C7.61791 7.76241 11.3788 0.333252 16.002 0.333252C20.6252 0.333252 24.3861 7.75191 24.3861 16.8686C24.3861 25.9852 20.6252 33.4144 16.002 33.4144ZM16.002 1.03346C11.7679 1.03346 8.31892 8.13702 8.31892 16.8686C8.31892 25.6001 11.7679 32.7037 16.002 32.7037C20.2361 32.7037 23.6851 25.6001 23.6851 16.8686C23.6851 8.13702 20.2361 1.03346 16.002 1.03346Z" fill="white"/>
<path d="M17.439 33.6665C16.9069 33.6698 16.3785 33.5773 15.8793 33.3934C13.7377 32.5952 12.3532 30.211 11.9851 26.6785C11.6346 23.2335 12.2691 19.0778 13.7973 14.9746C16.9833 6.43208 23.0997 0.788429 27.4284 2.3989C29.5735 3.19713 30.9545 5.58133 31.3225 9.11385C31.673 12.5589 31.0386 16.7181 29.5104 20.8178C26.6923 28.38 21.5785 33.6665 17.439 33.6665ZM25.8161 2.81552C21.9886 2.81552 17.1691 7.93751 14.4562 15.2196C12.9631 19.2213 12.3532 23.272 12.6826 26.6084C13.0332 29.8609 14.2459 32.0385 16.1246 32.7352C20.0958 34.2127 25.8056 28.7581 28.8549 20.5727C30.3446 16.571 30.9755 12.5203 30.625 9.18737C30.2745 5.93142 29.0652 3.75729 27.1865 3.05709C26.7476 2.89612 26.2836 2.81432 25.8161 2.81552Z" fill="white"/>
<path d="M14.5646 33.6665C10.4252 33.6665 5.31131 28.38 2.49325 20.8178C0.96505 16.7181 0.320127 12.5589 0.681147 9.11385C1.03165 5.58133 2.43367 3.19713 4.57525 2.3989C8.90399 0.788429 15.0203 6.43208 18.2064 14.9746C19.7346 19.0778 20.376 23.2335 20.0185 26.6785C19.668 30.211 18.266 32.5952 16.1244 33.3934C15.6251 33.5773 15.0968 33.6698 14.5646 33.6665ZM3.14869 20.5727C6.19809 28.7581 11.9113 34.2267 15.879 32.7352C17.7577 32.035 18.981 29.8609 19.321 26.6084C19.6715 23.265 19.0406 19.2213 17.5474 15.2196C14.4981 7.03775 8.78482 1.56565 4.8171 3.05709C2.9384 3.75729 1.71513 5.93142 1.37865 9.18737C1.02814 12.5273 1.65905 16.571 3.14869 20.5727Z" fill="white"/>
</svg>
