<svg width="300" height="326" viewBox="0 0 300 326" fill="none" xmlns="http://www.w3.org/2000/svg">
<path d="M0.835449 84.1782C2.77777 80.4898 27.6395 90.1114 29.8644 86.5998C32.0892 83.0882 12.8308 64.6464 15.3087 61.3233C17.7866 58.0002 40.8238 71.4633 43.5607 68.3524C46.2976 65.2414 30.2293 43.9656 33.231 41.0785C36.2328 38.1915 56.8097 55.1544 60.0292 52.5148C63.2488 49.8752 50.7355 26.3251 54.1434 23.9507C57.5513 21.5762 75.1793 41.6265 78.7815 39.5113C82.3836 37.3961 73.7844 12.1726 77.5513 10.3756C81.3183 8.57855 95.4737 31.1742 99.376 29.6894C103.278 28.2046 98.8227 1.89708 102.837 0.730469M299.164 84.1782C297.216 80.4898 272.355 90.1114 270.13 86.5998C267.905 83.0882 287.163 64.6464 284.662 61.3233C282.16 58.0002 259.147 71.4633 256.41 68.3524C253.673 65.2414 269.741 43.9656 266.745 41.0785C263.749 38.1915 243.167 55.1544 239.941 52.5148C236.716 49.8752 249.235 26.3251 245.827 23.9507C242.419 21.5762 224.797 41.6265 221.189 39.5113C217.581 37.3961 226.192 12.1726 222.425 10.3756C218.658 8.57855 204.497 31.1742 200.595 29.6894C196.692 28.2046 201.148 1.89708 197.134 0.730469M0.835449 241.552C2.77777 245.241 27.6395 235.619 29.8644 239.131C32.0892 242.642 12.8308 261.084 15.3087 264.407C17.7866 267.73 40.8238 254.267 43.5607 257.378C46.2976 260.489 30.2293 281.765 33.231 284.652C36.2328 287.539 56.8097 270.576 60.0292 273.216C63.2488 275.855 50.7355 299.405 54.1434 301.78C57.5513 304.154 75.1793 284.104 78.7815 286.219C82.3836 288.334 73.7844 313.558 77.5513 315.355C81.3183 317.152 95.4737 294.556 99.376 296.041C103.278 297.526 98.8227 323.833 102.837 325M299.164 241.552C297.216 245.241 272.355 235.619 270.13 239.131C267.905 242.642 287.163 261.084 284.662 264.407C282.16 267.73 259.147 254.267 256.41 257.378C253.673 260.489 269.741 281.765 266.745 284.652C263.749 287.539 243.167 270.576 239.941 273.216C236.716 275.855 249.235 299.405 245.827 301.78C242.419 304.154 224.797 284.104 221.189 286.219C217.581 288.334 226.192 313.558 222.425 315.355C218.658 317.152 204.497 294.556 200.595 296.041C196.692 297.526 201.148 323.833 197.134 325" stroke="white" stroke-width="1.29" stroke-miterlimit="10"/>
</svg>
