<svg width="94" height="94" viewBox="0 0 94 94" fill="none" xmlns="http://www.w3.org/2000/svg">
<rect x="47.2548" y="12.7071" width="48.8579" height="48.8579" transform="rotate(45 47.2548 12.7071)" stroke="white"/>
<rect x="47.2548" y="6.34315" width="57.8579" height="57.8579" transform="rotate(45 47.2548 6.34315)" stroke="white" stroke-opacity="0.16" stroke-width="8"/>
<path d="M40.0006 56.915C39.3058 56.9145 38.6328 56.6731 38.0961 56.2319C37.5594 55.7908 37.1923 55.1772 37.0573 54.4958C36.9222 53.8143 37.0277 53.1071 37.3556 52.4947C37.6835 51.8822 38.2136 51.4024 38.8556 51.137C39.4976 50.8716 40.2118 50.8369 40.8765 51.039C41.5411 51.2411 42.1152 51.6674 42.5008 52.2453C42.8864 52.8232 43.0597 53.5169 42.9912 54.2082C42.9227 54.8995 42.6167 55.5457 42.1252 56.0367C41.8463 56.3158 41.5151 56.5371 41.1505 56.6879C40.7859 56.8386 40.3951 56.9158 40.0006 56.915ZM40.0006 51.8588C39.5255 51.8591 39.0653 52.0241 38.6983 52.3256C38.3312 52.6272 38.0801 53.0467 37.9877 53.5126C37.8953 53.9786 37.9673 54.4622 38.1914 54.881C38.4156 55.2998 38.7781 55.6279 39.217 55.8095C39.656 55.9911 40.1443 56.0148 40.5988 55.8767C41.0533 55.7386 41.4459 55.4471 41.7096 55.052C41.9733 54.657 42.0919 54.1826 42.0451 53.7099C41.9983 53.2372 41.7891 52.7953 41.4531 52.4596C41.2628 52.268 41.0365 52.116 40.7872 52.0124C40.5379 51.9088 40.2705 51.8557 40.0006 51.856V51.8588Z" fill="white"/>
<path d="M44.9959 55.4939C44.301 55.4937 43.6276 55.2525 43.0905 54.8114C42.5535 54.3704 42.186 53.7568 42.0506 53.0751C41.9152 52.3935 42.0204 51.686 42.3482 51.0732C42.676 50.4604 43.2061 49.9802 43.8482 49.7145C44.4904 49.4487 45.2048 49.4138 45.8697 49.6157C46.5347 49.8177 47.1091 50.2439 47.495 50.8218C47.881 51.3998 48.0546 52.0936 47.9863 52.7852C47.918 53.4768 47.612 54.1233 47.1205 54.6146C46.8418 54.894 46.5106 55.1155 46.146 55.2664C45.7814 55.4173 45.3905 55.4946 44.9959 55.4939ZM44.9959 50.4367C44.5209 50.437 44.0607 50.602 43.6937 50.9036C43.3266 51.2051 43.0755 51.6246 42.9831 52.0906C42.8907 52.5565 42.9627 53.0401 43.1869 53.4589C43.411 53.8777 43.7734 54.2059 44.2124 54.3874C44.6513 54.569 45.1397 54.5927 45.5942 54.4546C46.0487 54.3165 46.4412 54.0251 46.7049 53.63C46.9687 53.2349 47.0873 52.7606 47.0405 52.2879C46.9937 51.8151 46.7845 51.3733 46.4485 51.0375C46.2578 50.8467 46.0313 50.6954 45.7821 50.5923C45.5328 50.4893 45.2656 50.4364 44.9959 50.4367Z" fill="white"/>
<path d="M41.4188 51.9159C40.7241 51.9153 40.0511 51.6739 39.5144 51.2328C38.9777 50.7916 38.6106 50.1781 38.4756 49.4966C38.3405 48.8151 38.446 48.1079 38.7739 47.4955C39.1018 46.883 39.6319 46.4032 40.2739 46.1378C40.9159 45.8724 41.6301 45.8378 42.2948 46.0398C42.9595 46.2419 43.5335 46.6682 43.9191 47.2461C44.3047 47.824 44.478 48.5177 44.4095 49.209C44.341 49.9003 44.035 50.5465 43.5434 51.0375C43.2646 51.3166 42.9333 51.5378 42.5688 51.6886C42.2042 51.8393 41.8134 51.9165 41.4188 51.9159ZM41.4188 46.8596C40.9438 46.8599 40.4836 47.0249 40.1166 47.3265C39.7495 47.628 39.4984 48.0475 39.406 48.5135C39.3136 48.9794 39.3856 49.463 39.6097 49.8818C39.8339 50.3006 40.1963 50.6288 40.6353 50.8103C41.0743 50.9919 41.5626 51.0156 42.0171 50.8775C42.4716 50.7394 42.8642 50.448 43.1279 50.0529C43.3916 49.6578 43.5102 49.1835 43.4634 48.7107C43.4166 48.238 43.2074 47.7962 42.8714 47.4604C42.6807 47.2696 42.4542 47.1183 42.205 47.0152C41.9557 46.9121 41.6886 46.8593 41.4188 46.8596Z" fill="white"/>
<path d="M43.2078 51.1772C43.1137 51.1774 43.0217 51.1496 42.9434 51.0974C42.865 51.0452 42.804 50.9709 42.768 50.884C42.7319 50.797 42.7225 50.7013 42.7409 50.609C42.7593 50.5167 42.8047 50.4319 42.8714 50.3654L56.0067 37.2301C56.0506 37.1847 56.103 37.1484 56.161 37.1235C56.219 37.0986 56.2814 37.0855 56.3445 37.085C56.4076 37.0844 56.4702 37.0964 56.5286 37.1203C56.587 37.1442 56.64 37.1795 56.6847 37.2242C56.7293 37.2688 56.7646 37.3219 56.7885 37.3803C56.8124 37.4387 56.8244 37.5013 56.8239 37.5644C56.8233 37.6275 56.8102 37.6899 56.7853 37.7479C56.7604 37.8058 56.7242 37.8583 56.6788 37.9021L43.5434 51.0375C43.4545 51.1267 43.3338 51.177 43.2078 51.1772Z" fill="white"/>
<path d="M54.7225 44.1884C54.66 44.1886 54.5982 44.1764 54.5404 44.1525C54.4827 44.1287 54.4302 44.0938 54.386 44.0497L52.1816 41.8452C52.1362 41.8014 52.0999 41.7489 52.075 41.6909C52.0501 41.6329 52.037 41.5706 52.0365 41.5075C52.0359 41.4444 52.0479 41.3818 52.0718 41.3234C52.0957 41.2649 52.131 41.2119 52.1757 41.1672C52.2203 41.1226 52.2733 41.0873 52.3318 41.0634C52.3902 41.0395 52.4527 41.0275 52.5158 41.0281C52.579 41.0286 52.6413 41.0417 52.6993 41.0666C52.7573 41.0915 52.8098 41.1277 52.8536 41.1731L55.058 43.3776C55.1472 43.4667 55.1972 43.5876 55.1972 43.7136C55.1972 43.8396 55.1472 43.9605 55.058 44.0497C55.0141 44.0939 54.9618 44.129 54.9042 44.1528C54.8466 44.1766 54.7849 44.1887 54.7225 44.1884Z" fill="white"/>
<path d="M51.9743 44.9727C51.8805 44.9725 51.7888 44.9445 51.7108 44.8923C51.6328 44.84 51.5721 44.7659 51.5362 44.6791C51.5003 44.5924 51.4909 44.497 51.5091 44.405C51.5274 44.3129 51.5725 44.2283 51.6388 44.1618L55.2073 40.5933C55.2969 40.5067 55.417 40.4588 55.5416 40.4599C55.6662 40.461 55.7855 40.511 55.8736 40.5991C55.9617 40.6872 56.0117 40.8064 56.0128 40.931C56.0139 41.0557 55.966 41.1757 55.8794 41.2654L52.3108 44.8339C52.2666 44.878 52.2141 44.913 52.1564 44.9368C52.0987 44.9606 52.0368 44.9728 51.9743 44.9727Z" fill="white"/>
<path d="M52.9563 45.9547C52.8939 45.9548 52.832 45.9426 52.7742 45.9188C52.7165 45.8949 52.664 45.86 52.6198 45.8159L51.6388 44.8339C51.5522 44.7443 51.5043 44.6242 51.5054 44.4996C51.5065 44.375 51.5564 44.2557 51.6446 44.1676C51.7327 44.0795 51.8519 44.0295 51.9765 44.0284C52.1012 44.0273 52.2212 44.0753 52.3109 44.1618L53.2928 45.1438C53.3592 45.2103 53.4043 45.295 53.4225 45.3872C53.4407 45.4793 53.4312 45.5748 53.3952 45.6616C53.3592 45.7483 53.2983 45.8225 53.2202 45.8746C53.1421 45.9268 53.0503 45.9546 52.9563 45.9547Z" fill="white"/>
<path d="M56.5248 42.3861C56.4624 42.3862 56.4005 42.374 56.3427 42.3502C56.285 42.3264 56.2325 42.2914 56.1883 42.2473L55.2073 41.2654C55.1181 41.1761 55.0682 41.0551 55.0682 40.929C55.0683 40.8029 55.1185 40.6819 55.2078 40.5928C55.297 40.5037 55.418 40.4537 55.5441 40.4538C55.6703 40.4538 55.7912 40.504 55.8803 40.5933L56.8613 41.5753C56.9277 41.6418 56.9728 41.7265 56.991 41.8186C57.0092 41.9108 56.9997 42.0062 56.9637 42.093C56.9277 42.1798 56.8668 42.2539 56.7887 42.3061C56.7106 42.3582 56.6188 42.3861 56.5248 42.3861Z" fill="white"/>
</svg>
