<svg width="28" height="28" viewBox="0 0 28 28" fill="none" xmlns="http://www.w3.org/2000/svg">
<path d="M4.6674 27.3337C3.74111 27.3329 2.84372 27.0083 2.12814 26.4151C1.41255 25.8218 0.923068 24.9967 0.743024 24.0803C0.56298 23.1639 0.703553 22.2129 1.14078 21.3893C1.578 20.5657 2.28479 19.9205 3.14081 19.5636C3.99683 19.2066 4.94906 19.1601 5.83529 19.4318C6.72152 19.7036 7.48691 20.2769 8.00105 21.054C8.5152 21.8311 8.7463 22.7639 8.65496 23.6936C8.56363 24.6233 8.15555 25.4923 7.5002 26.1525C7.12845 26.5279 6.68682 26.8255 6.20067 27.0282C5.71453 27.2309 5.19345 27.3347 4.6674 27.3337ZM4.6674 20.5343C4.03403 20.5346 3.42038 20.7565 2.93101 21.162C2.44164 21.5676 2.10685 22.1317 1.98363 22.7583C1.86041 23.3848 1.95639 24.0351 2.25526 24.5983C2.55412 25.1616 3.03739 25.6028 3.62267 25.847C4.20795 26.0911 4.85907 26.123 5.46507 25.9373C6.07108 25.7516 6.59448 25.3597 6.94611 24.8284C7.29774 24.2971 7.4558 23.6592 7.39344 23.0236C7.33108 22.3879 7.05211 21.7936 6.60406 21.3421C6.3504 21.0845 6.04869 20.8802 5.71628 20.7408C5.38386 20.6015 5.02737 20.53 4.6674 20.5304V20.5343Z" fill="white"/>
<path d="M11.3279 25.4226C10.4013 25.4223 9.50345 25.0979 8.78737 24.5048C8.07129 23.9117 7.58126 23.0865 7.40078 22.1699C7.22029 21.2533 7.36055 20.3018 7.7976 19.4778C8.23465 18.6537 8.94146 18.008 9.79763 17.6506C10.6538 17.2932 11.6063 17.2463 12.493 17.5179C13.3796 17.7894 14.1455 18.3626 14.66 19.1398C15.1746 19.9169 15.4061 20.85 15.3151 21.7801C15.224 22.7101 14.816 23.5795 14.1607 24.2402C13.7891 24.6158 13.3475 24.9137 12.8613 25.1166C12.3752 25.3196 11.854 25.4236 11.3279 25.4226ZM11.3279 18.6219C10.6945 18.6223 10.0809 18.8441 9.59155 19.2497C9.10218 19.6552 8.76732 20.2193 8.6441 20.8459C8.52089 21.4725 8.61693 22.1228 8.91579 22.686C9.21466 23.2492 9.69786 23.6905 10.2831 23.9346C10.8684 24.1788 11.5195 24.2107 12.1255 24.025C12.7315 23.8392 13.255 23.4473 13.6066 22.916C13.9582 22.3847 14.1163 21.7469 14.054 21.1112C13.9916 20.4755 13.7126 19.8813 13.2646 19.4298C13.0104 19.1732 12.7084 18.9698 12.3761 18.8312C12.0437 18.6925 11.6875 18.6214 11.3279 18.6219Z" fill="white"/>
<path d="M6.55845 20.611C5.63216 20.6102 4.73477 20.2856 4.01919 19.6924C3.3036 19.0992 2.81412 18.2741 2.63407 17.3577C2.45403 16.4412 2.5946 15.4902 3.03183 14.6666C3.46905 13.843 4.17584 13.1978 5.03186 12.8409C5.88788 12.4839 6.84017 12.4374 7.7264 12.7091C8.61262 12.9809 9.37796 13.5542 9.8921 14.3313C10.4062 15.1084 10.6373 16.0412 10.546 16.9709C10.4547 17.9006 10.0466 18.7696 9.39124 19.4298C9.01942 19.8051 8.57778 20.1026 8.09166 20.3053C7.60553 20.508 7.08448 20.6119 6.55845 20.611ZM6.55845 13.8115C5.92508 13.8119 5.31142 14.0338 4.82206 14.4393C4.33269 14.8449 3.99789 15.409 3.87468 16.0356C3.75146 16.6621 3.84744 17.3124 4.1463 17.8756C4.44517 18.4389 4.92844 18.8801 5.51372 19.1243C6.09899 19.3684 6.75012 19.4004 7.35612 19.2146C7.96212 19.0289 8.48553 18.637 8.83716 18.1057C9.18879 17.5744 9.34691 16.9366 9.28455 16.3009C9.22219 15.6652 8.94322 15.071 8.49517 14.6195C8.24095 14.3629 7.93898 14.1594 7.60664 14.0208C7.2743 13.8822 6.91809 13.8111 6.55845 13.8115Z" fill="white"/>
<path d="M8.94378 19.6177C8.81827 19.6179 8.69557 19.5806 8.59114 19.5103C8.48671 19.4401 8.40532 19.3402 8.35727 19.2233C8.30921 19.1064 8.29664 18.9777 8.32118 18.8535C8.34573 18.7294 8.40629 18.6154 8.49515 18.526L26.0089 0.86212C26.0674 0.801074 26.1373 0.752368 26.2147 0.71887C26.292 0.685372 26.3752 0.667754 26.4593 0.667016C26.5434 0.666279 26.6269 0.682441 26.7047 0.714579C26.7826 0.746717 26.8534 0.79418 26.9129 0.854193C26.9724 0.914206 27.0195 0.98557 27.0513 1.06412C27.0832 1.14267 27.0992 1.22684 27.0985 1.3117C27.0977 1.39657 27.0803 1.48045 27.047 1.55843C27.0138 1.63641 26.9656 1.70693 26.9051 1.76589L9.39124 19.4298C9.27268 19.5498 9.11171 19.6173 8.94378 19.6177Z" fill="white"/>
<path d="M24.2967 10.2195C24.2134 10.2196 24.1309 10.2032 24.0539 10.1712C23.9769 10.1391 23.9069 10.0921 23.848 10.0328L20.9087 7.06838C20.8482 7.00942 20.7999 6.9389 20.7667 6.86092C20.7335 6.78294 20.716 6.69906 20.7153 6.61419C20.7145 6.52932 20.7306 6.44516 20.7624 6.36661C20.7943 6.28806 20.8414 6.2167 20.9009 6.15668C20.9604 6.09667 21.0311 6.04921 21.109 6.01707C21.1869 5.98493 21.2703 5.96877 21.3545 5.96951C21.4386 5.97024 21.5218 5.98788 21.5991 6.02138C21.6764 6.05487 21.7464 6.10356 21.8048 6.16461L24.7441 9.12904C24.8629 9.2489 24.9296 9.41145 24.9296 9.58093C24.9296 9.75041 24.8629 9.91296 24.7441 10.0328C24.6855 10.0923 24.6158 10.1395 24.539 10.1715C24.4621 10.2036 24.3798 10.2199 24.2967 10.2195Z" fill="white"/>
<path d="M20.6324 11.2741C20.5073 11.2738 20.385 11.2362 20.2811 11.1659C20.1771 11.0957 20.0961 10.996 20.0482 10.8793C20.0004 10.7627 19.9878 10.6344 20.0122 10.5106C20.0365 10.3868 20.0967 10.2731 20.185 10.1837L24.943 5.38485C25.0626 5.26842 25.2226 5.20399 25.3888 5.20544C25.555 5.2069 25.7139 5.27413 25.8314 5.39264C25.9489 5.51114 26.0156 5.67145 26.017 5.83904C26.0185 6.00662 25.9546 6.16807 25.8392 6.28862L21.0811 11.0875C21.0221 11.1468 20.9522 11.1938 20.8752 11.2258C20.7982 11.2578 20.7157 11.2742 20.6324 11.2741Z" fill="white"/>
<path d="M21.9418 12.5946C21.8585 12.5947 21.776 12.5783 21.699 12.5463C21.622 12.5143 21.552 12.4673 21.4931 12.408L20.1851 11.0875C20.0696 10.9669 20.0057 10.8054 20.0072 10.6379C20.0086 10.4703 20.0753 10.31 20.1928 10.1915C20.3103 10.073 20.4692 10.0057 20.6354 10.0043C20.8015 10.0028 20.9616 10.0672 21.0812 10.1837L22.3905 11.5042C22.4789 11.5937 22.539 11.7075 22.5633 11.8315C22.5876 11.9554 22.575 12.0838 22.527 12.2004C22.479 12.3171 22.3978 12.4168 22.2936 12.487C22.1894 12.5571 22.067 12.5946 21.9418 12.5946Z" fill="white"/>
<path d="M26.6998 7.79576C26.6165 7.79591 26.534 7.7795 26.457 7.74748C26.38 7.71546 26.31 7.66843 26.2511 7.60911L24.943 6.28861C24.8242 6.16859 24.7575 6.00588 24.7576 5.83627C24.7578 5.66666 24.8247 5.50405 24.9437 5.3842C25.0627 5.26435 25.224 5.19709 25.3922 5.19721C25.5604 5.19733 25.7215 5.26482 25.8404 5.38484L27.1484 6.70535C27.2369 6.79481 27.297 6.90869 27.3213 7.0326C27.3456 7.15652 27.3329 7.28492 27.2849 7.40159C27.2369 7.51826 27.1557 7.61797 27.0516 7.68812C26.9474 7.75827 26.825 7.79573 26.6998 7.79576Z" fill="white"/>
</svg>
