<svg width="347" height="64" viewBox="0 0 347 64" fill="none" xmlns="http://www.w3.org/2000/svg">
<path d="M120.133 18.9291C120.133 18.9291 116.41 29.5105 115.252 32.7738C115.252 32.7738 112.635 40.086 112.448 40.6746C112.203 41.4466 111.63 43.0483 110.819 43.0483C109.763 43.0483 109.14 41.2806 108.905 40.6746C108.133 38.6753 107.805 36.4193 107.486 34.3061C107.124 31.8932 106.925 29.4587 106.89 27.019C106.878 26.1441 107.02 25.2739 107.311 24.4485L109.241 18.9253H104.561C104.561 18.9253 100.836 29.5066 99.6781 32.77C99.6781 32.77 97.0612 40.0822 96.8741 40.6708C96.6309 41.4427 96.0558 43.0445 95.2472 43.0445C94.1896 43.0445 93.5663 41.2767 93.3328 40.6708C92.5609 38.6714 92.2309 36.4155 91.9124 34.3023C91.1691 29.2059 91.1126 24.0328 91.7445 18.9214H85.0113C85.0113 18.9214 90.0694 35.0144 91.5728 38.7428C92.3158 40.5936 94.1935 45.5282 96.9763 45.5282C99.7592 45.5282 100.711 43.1564 101.608 40.6669C102.065 39.4067 103.38 35.6705 104.794 31.643C105.906 35.0067 106.875 37.9323 107.149 38.7428C107.787 40.6322 109.771 45.5282 112.552 45.5282C115.333 45.5282 116.288 43.1564 117.184 40.6669C118.322 37.5213 124.826 18.9214 124.826 18.9214L120.133 18.9291Z" fill="white"/>
<path d="M231.66 19.8863V45.0322H227.368V18.9291C229.607 18.9291 239.027 18.8809 240.877 19.0295C243 19.1993 245.123 19.5583 246.715 21.1079C247.549 21.9223 248.093 23.0146 248.043 24.1957C247.861 28.5668 242.516 29.717 239.254 30.9656C238.727 31.1682 238.137 31.4384 237.971 31.9787C237.805 32.5191 238.119 33.0479 238.422 33.5072C241.273 37.8185 244.571 41.8924 248.651 45.067H242.521C242.521 45.067 241.03 43.6697 240.399 42.9576C238.261 40.5966 236.373 38.0214 234.763 35.273C234.408 34.6554 234.057 33.9491 234.239 33.2602C234.389 32.6812 234.875 32.2702 235.364 31.9344C237.784 30.2786 241.414 29.7556 242.963 27.0075C243.969 25.2224 243.753 22.7869 242.265 21.3299C241.041 20.1314 239.16 19.8979 237.525 19.869C235.636 19.8342 233.733 19.8941 231.851 19.8941L231.66 19.8863Z" fill="white"/>
<path d="M175.624 18.9292H169.174C173.74 26.1488 174.948 33.8681 174.614 41.8384C173.672 41.2594 171.38 40.0765 166.603 31.9846C164.517 28.4472 163.832 27.2546 161.671 23.7635C160.38 21.6812 158.735 18.4564 155.866 18.4564C154.577 18.4564 153.936 18.935 153.936 18.935V45.0651H160.384C155.818 37.8456 154.611 30.1262 154.945 22.1559C156.279 22.1559 160.349 29.8753 161.518 31.9981C162.813 34.3275 169.317 45.5476 173.694 45.5476C173.657 45.5476 173.728 45.5476 173.694 45.5476C174.983 45.5476 175.624 45.069 175.624 45.069V18.9292Z" fill="white"/>
<path d="M137.729 18.493C130.146 18.493 123.998 24.5334 123.998 31.9845C123.998 39.4357 130.146 45.4742 137.729 45.4742C145.311 45.4742 151.46 39.4337 151.46 31.9845C151.46 24.5354 145.315 18.493 137.729 18.493ZM137.845 44.5806C133.267 44.5806 129.556 38.9455 129.556 31.9942C129.556 25.0429 133.267 19.4078 137.845 19.4078C142.422 19.4078 146.143 25.0429 146.143 31.9942C146.143 38.9455 142.42 44.5806 137.845 44.5806Z" fill="white"/>
<path d="M270.109 45.0593V38.6232C265.774 43.1101 260.77 44.3221 255.976 44.0442V18.9388H251.538V45.0535L270.109 45.0593Z" fill="white"/>
<path d="M186.26 18.9292H179.369V45.0593H186.264C197.65 45.0593 201.603 39.1983 201.603 31.9865C201.603 24.7747 197.645 18.9292 186.26 18.9292ZM186.388 44.1793C185.515 44.1792 184.646 44.0524 183.81 43.8029V20.1932C184.646 19.9405 185.514 19.8105 186.388 19.8073C194.435 19.8073 196.809 25.261 196.809 31.9904C196.809 38.7197 194.435 44.1793 186.388 44.1793Z" fill="white"/>
<path d="M288.291 35.8095C289.774 40.0089 291.549 45.0593 291.549 45.0593H296.422L288.585 23.3138C287.684 20.8243 286.722 18.4525 283.953 18.4525C281.184 18.4525 279.194 23.3485 278.55 25.2378C277.81 27.4282 271.988 45.0593 271.988 45.0593H278.721C278.355 41.9905 278.226 38.8981 278.335 35.8095H288.291ZM278.903 29.6784C279.221 27.5691 279.545 25.3131 280.323 23.3099C280.557 22.704 281.18 20.9362 282.238 20.9362C283.046 20.9362 283.621 22.5418 283.864 23.3099C284.057 23.8985 286.668 31.2107 286.668 31.2107C286.971 32.0618 287.44 33.4107 287.988 34.9411H278.378C278.467 33.1862 278.642 31.432 278.903 29.6784Z" fill="white"/>
<path d="M223.242 45.0593L223.202 38.6232C218.865 43.1101 213.902 44.3221 209.114 44.0442V32.3184C212.009 32.1254 215.025 32.8395 217.652 35.5567L217.673 32.2895V31.7105L217.652 28.4395C215.025 31.1567 212.014 31.8669 209.114 31.6777V19.9346C213.886 19.6452 218.283 20.4846 222.623 24.9715L222.663 18.9292L204.669 18.9388V45.0535H209.108V45.0419L223.242 45.0593Z" fill="white"/>
<path d="M320.252 18.9292H313.804C318.368 26.1488 319.576 33.8681 319.242 41.8384C318.301 41.2594 316.008 40.0765 311.233 31.9846C309.145 28.4472 308.462 27.2546 306.299 23.7635C305.01 21.6812 303.369 18.4564 300.494 18.4564C299.205 18.4564 298.564 18.935 298.564 18.935V45.0651H305.012C300.446 37.8456 299.239 30.1262 299.575 22.1559C300.907 22.1559 304.979 29.8753 306.148 31.9981C307.441 34.3275 313.945 45.5476 318.322 45.5476C318.287 45.5476 318.356 45.5476 318.322 45.5476C319.611 45.5476 320.252 45.069 320.252 45.069V18.9292Z" fill="white"/>
<path d="M331.487 18.9292H324.598V45.0593H331.491C342.877 45.0593 346.829 39.1983 346.829 31.9865C346.829 24.7747 342.871 18.9292 331.487 18.9292ZM331.615 44.1793C330.741 44.1792 329.873 44.0524 329.036 43.8029V20.1932C329.873 19.9405 330.741 19.8105 331.615 19.8073C339.662 19.8073 342.036 25.261 342.036 31.9904C342.036 38.7197 339.662 44.1793 331.615 44.1793Z" fill="white"/>
<path d="M42.2367 20.2813C42.4073 19.9248 42.371 19.4895 42.1935 19.136C41.911 18.5757 41.3368 18.247 40.7773 18.0154C39.6196 17.5369 38.3624 17.3602 37.1129 17.3262C34.6993 17.2496 32.2944 17.6534 30.0381 18.514C27.6186 19.4501 25.5549 20.8123 23.5637 22.4246C22.6538 23.1593 21.1103 24.09 20.0043 23.2249C18.8737 22.342 19.6401 20.9204 20.3184 19.9603C21.1157 18.8335 22.2703 17.946 23.4557 17.2591C25.2007 16.2465 27.1725 15.687 29.1251 15.2301C31.1757 14.7478 33.2888 14.6127 35.3764 14.3603C37.1955 14.1411 39.1064 14.1195 40.6723 13.0283C43.0054 11.4006 41.8632 8.96025 39.7323 7.90293C37.1855 6.63954 34.3654 6.24671 31.5516 6.51914C30.5544 6.61639 29.5627 6.76302 28.5787 6.94902C27.3763 7.17592 23.9079 7.60965 24.6326 5.2982C24.8017 4.75796 25.2246 4.33503 25.6846 4.0078C28.1257 2.27055 31.134 1.82138 34.0729 1.78125C36.6046 1.74532 39.1247 2.12974 41.5305 2.91883C43.5549 3.58564 45.3724 4.65377 47.0009 6.02675C48.3491 7.16589 49.4095 8.6145 50.8597 9.63401C51.5944 10.1511 52.7606 10.2514 53.4366 9.57149C54.2292 8.77811 53.936 7.5155 53.3641 6.69742C52.6008 5.6046 51.3922 4.83437 50.2816 4.13515C46.7114 1.88621 42.5169 0.703083 38.3501 0.224586C36.2638 -0.0199512 34.1589 -0.0649174 32.064 0.0902979C29.146 0.31334 26.2418 0.862068 23.4773 1.83295C21.5363 2.51366 19.5907 3.36029 17.8905 4.53415C16.6147 5.41165 15.18 6.70051 14.8582 8.28727C14.4723 10.1789 15.8298 11.8374 17.6967 12.0805C18.8127 12.2264 19.9426 11.9431 20.9984 11.5519C23.2982 10.7029 25.541 9.6888 27.8918 8.978C29.1267 8.60524 30.4032 8.22938 31.7036 8.25485C32.5989 8.2726 34.0868 8.46786 34.5792 9.35077C35.9236 11.7633 29.8544 12.8531 28.615 13.2497C26.6686 13.8733 24.709 14.4846 22.8799 15.4107C19.1037 17.3208 15.738 20.1718 14.1589 24.1865C13.533 25.7756 13.5994 27.7521 14.5518 29.203C15.5844 30.7759 17.716 31.3871 19.434 30.6022C20.6133 30.062 21.0285 29.2817 21.2237 28.9375C22.1568 27.2991 23.0906 24.7939 26.3568 22.4971C28.1844 21.2105 30.292 20.3774 32.5054 20.0666C34.7187 19.7558 36.9743 19.9762 39.0856 20.7097C39.8682 20.9806 40.7665 21.2561 41.5707 20.9018C41.855 20.7834 42.0895 20.5701 42.2344 20.2983L42.2367 20.2813Z" fill="white"/>
<path d="M18.7131 34.0929C18.3187 34.123 17.9599 34.3723 17.743 34.7034C17.398 35.2282 17.4011 35.8896 17.4798 36.49C17.6434 37.7295 18.1204 38.9088 18.7147 40.0085C19.8552 42.1369 21.4072 44.0176 23.2804 45.5414C25.3025 47.1683 27.5159 48.2742 29.9084 49.1934C30.9989 49.6117 32.5764 50.4822 32.3781 51.8753C32.179 53.2953 30.5644 53.3416 29.3936 53.2351C28.0191 53.1086 26.6739 52.5521 25.4862 51.8691C23.7342 50.8619 22.2679 49.4349 20.8941 47.9732C19.4509 46.4389 18.2771 44.677 17.016 42.9961C15.917 41.5297 14.943 39.8866 13.215 39.077C10.6389 37.87 9.09609 40.0803 9.24581 42.4527C9.42486 45.2898 10.4953 47.9323 12.1376 50.2283C12.7195 51.0425 13.3431 51.8282 13.9961 52.5876C14.7933 53.5137 16.9033 56.3022 14.5363 56.8324C13.9845 56.9558 13.4064 56.8015 12.8924 56.5669C10.1673 55.3212 8.27492 52.9395 6.76997 50.4159C5.47306 48.2412 4.54617 45.8664 4.0271 43.3881C3.59182 41.3043 3.60803 39.1936 3.98234 37.0967C4.29567 35.3594 5.01959 33.7171 5.17781 31.9528C5.25498 31.0576 4.76028 29.9995 3.8357 29.7525C2.75522 29.4623 1.80594 30.3475 1.38301 31.252C0.818079 32.4591 0.755562 33.8915 0.704625 35.2027C0.542554 39.4189 1.61455 43.6428 3.28388 47.4916C4.11552 49.4206 5.12934 51.2657 6.31154 53.0021C7.96312 55.4177 9.89101 57.6574 12.1137 59.5667C13.6742 60.9073 15.3798 62.1692 17.2437 63.0567C18.6413 63.7227 20.4751 64.3208 22.0101 63.8053C23.8392 63.1879 24.5979 61.1898 23.8755 59.451C23.4441 58.4114 22.6337 57.5748 21.7678 56.8563C19.8793 55.2904 17.8827 53.8533 16.0914 52.1732C15.1529 51.2926 14.1874 50.3719 13.5592 49.2335C13.1263 48.4494 12.5521 47.0625 13.0707 46.195C14.4877 43.8249 18.4654 48.5358 19.4293 49.411C20.942 50.7848 22.4531 52.1747 24.1688 53.2961C27.712 55.6114 31.8641 57.1009 36.1312 56.4604C37.8206 56.208 39.4992 55.1622 40.2795 53.6125C41.1245 51.9324 40.5882 49.7792 39.0493 48.6848C37.9927 47.9331 37.109 47.9647 36.7131 47.967C34.8277 47.9778 32.1913 48.4224 28.5686 46.7422C26.5414 45.8023 24.7669 44.3936 23.3917 42.6324C22.0164 40.8712 21.0799 38.8081 20.6595 36.6135C20.5052 35.7993 20.2922 34.884 19.5837 34.3646C19.3386 34.1777 19.0366 34.0812 18.7285 34.0914L18.7131 34.0929Z" fill="white"/>
<path d="M42.436 47.5611C42.659 47.8868 43.0534 48.0736 43.4501 48.0959C44.0768 48.1314 44.6486 47.7988 45.1287 47.4307C46.1196 46.6689 46.9038 45.6664 47.5574 44.6014C48.8306 42.5492 49.6835 40.2645 50.0665 37.88C50.4647 35.317 50.3173 32.8481 49.9167 30.3167C49.7346 29.159 49.6991 27.3616 51.0034 26.8337C52.3332 26.2934 53.1813 27.6703 53.673 28.7384C54.251 29.9925 54.4447 31.4357 54.4447 32.8056C54.4447 34.8246 53.9454 36.8088 53.3643 38.7297C52.7569 40.7472 51.8207 42.6449 50.9926 44.5774C50.2741 46.2614 49.3364 47.9277 49.4992 49.8255C49.7416 52.6602 52.4258 52.8917 54.4069 51.5751C56.7739 50.0014 58.5251 47.7556 59.6951 45.1833C60.1095 44.2718 60.4776 43.3395 60.8087 42.3941C61.2139 41.2365 62.5722 38.0189 64.2122 39.8025C64.5981 40.2185 64.7525 40.7965 64.8034 41.3584C65.0867 44.3413 63.9722 47.1706 62.5375 49.736C61.3028 51.9466 59.7098 53.937 57.8235 55.6261C56.2337 57.0462 54.4 58.0857 52.3972 58.8097C50.7364 59.407 48.9513 59.6015 47.3437 60.3462C46.5287 60.7244 45.8619 61.6853 46.1088 62.6091C46.3998 63.6896 47.6393 64.07 48.6348 63.9836C49.9623 63.8686 51.2334 63.2072 52.3941 62.5944C56.1272 60.6272 59.249 57.5864 61.7472 54.2169C63.0018 52.5321 64.0932 50.7316 65.0064 48.8399C66.2721 46.2012 67.2445 43.4113 67.7902 40.5326C68.1714 38.5106 68.4076 36.4029 68.2478 34.3445C68.1251 32.801 67.7261 30.914 66.5129 29.8428C65.0666 28.5648 62.9535 28.909 61.809 30.4039C61.1244 31.2976 60.8056 32.4174 60.6158 33.5272C60.2037 35.9452 59.9575 38.3894 59.3979 40.7819C59.1047 42.0345 58.7906 43.3287 58.1184 44.4439C57.6553 45.2111 56.7423 46.4011 55.7313 46.3865C52.9699 46.344 55.0614 40.5434 55.3369 39.2715C55.7699 37.275 56.219 35.2707 56.3317 33.2239C56.5632 28.9985 55.7791 24.6573 53.0903 21.2808C52.0275 19.9441 50.2826 19.0133 48.5499 19.1129C46.6722 19.2209 45.077 20.7622 44.8979 22.6414C44.7752 23.9326 45.2445 24.682 45.4443 25.0239C46.3967 26.6515 48.0992 28.7122 48.4542 32.6899C48.6568 34.9162 48.3264 37.1588 47.4903 39.2322C46.6542 41.3055 45.3365 43.1499 43.6461 44.6129C43.0194 45.1532 42.3341 45.7961 42.2369 46.6697C42.1971 46.9753 42.2648 47.2852 42.4283 47.5464C42.4305 47.5515 42.4331 47.5564 42.436 47.5611Z" fill="white"/>
</svg>
