<svg width="41" height="40" viewBox="0 0 41 40" fill="none" xmlns="http://www.w3.org/2000/svg">
<path d="M39.9959 19.9745V20.1255C34.7787 20.1255 29.861 20.6273 26.1465 21.5309H26.0955C23.8376 22.0837 22.0815 23.84 21.5287 26.0982V26.1491C20.5762 29.8617 20.0744 34.7797 20.1234 40H19.8725C19.8725 34.7822 19.3708 29.864 18.4672 26.1491V26.0982C17.9145 23.84 16.1094 22.0837 13.9004 21.5309H13.8495C10.1373 20.5783 5.21977 20.0765 0 20.1255V20.0255L0.00588043 19.9745V19.8745C5.22314 19.8745 10.1409 19.3727 13.8554 18.4691H13.9063C16.1642 17.8673 17.9204 16.111 18.4731 13.9018V13.8509C19.4256 10.1383 19.9274 5.2203 19.8784 0H20.1293C20.1293 5.21779 20.631 10.136 21.5346 13.8509V13.9018C22.0873 16.16 23.8435 17.9163 26.1014 18.4691H26.1524C29.8645 19.4217 34.7821 19.9235 40.0018 19.8745L39.9959 19.9745Z" fill="white"/>
</svg>
