<svg width="32" height="32" viewBox="0 0 32 32" fill="none" xmlns="http://www.w3.org/2000/svg">
<path d="M6.43237 10.1935C5.6874 10.1935 4.95943 9.97348 4.34145 9.5595C3.72348 9.14551 3.2395 8.55854 2.95451 7.87056C2.66952 7.18259 2.59452 6.42662 2.73952 5.69665C2.88451 4.96668 3.2425 4.29571 3.76947 3.76973C4.29545 3.24375 4.96642 2.88477 5.6964 2.73977C6.42537 2.59478 7.18333 2.66878 7.87031 2.95377C8.55728 3.23875 9.14625 3.72073 9.55924 4.33971C9.97322 4.95868 10.1932 5.68565 10.1932 6.43062C10.1922 7.42858 9.79523 8.38454 9.09026 9.09051C8.38529 9.79649 7.42832 10.1925 6.43137 10.1945L6.43237 10.1935ZM6.43237 3.93772C5.93939 3.93772 5.4554 4.08372 5.04642 4.35771C4.63544 4.6317 4.31545 5.02168 4.12646 5.47766C3.93747 5.93364 3.88847 6.43562 3.98446 6.9196C4.08046 7.40358 4.31845 7.84856 4.66744 8.19755C5.01642 8.54654 5.4614 8.78453 5.94438 8.88052C6.42936 8.97652 6.93035 8.92752 7.38633 8.73853C7.84131 8.54954 8.23229 8.22955 8.50628 7.81957C8.78027 7.40958 8.92626 6.9266 8.92626 6.43262C8.92526 5.77165 8.66227 5.13768 8.19429 4.6707C7.72631 4.20371 7.09334 3.94072 6.43237 3.93972V3.93772Z" fill="white"/>
<path d="M16.0007 10.1935C15.2557 10.1935 14.5278 9.97348 13.9088 9.5595C13.2898 9.14551 12.8078 8.55854 12.5229 7.87056C12.2379 7.18259 12.1629 6.42662 12.3089 5.69665C12.4539 4.96668 12.8128 4.29571 13.3378 3.76973C13.8638 3.24375 14.5348 2.88477 15.2657 2.73977C15.9947 2.59478 16.7527 2.66878 17.4397 2.95377C18.1266 3.23875 18.7156 3.72073 19.1286 4.33971C19.5426 4.95868 19.7626 5.68565 19.7626 6.43062C19.7616 7.42858 19.3646 8.38454 18.6596 9.09051C17.9546 9.79649 16.9977 10.1915 16.0007 10.1935ZM16.0007 3.93772C15.5077 3.93772 15.0237 4.08372 14.6148 4.35771C14.2038 4.6317 13.8838 5.02168 13.6958 5.47766C13.5078 5.93364 13.4568 6.43562 13.5538 6.9196C13.6488 7.40358 13.8878 7.84856 14.2358 8.19755C14.5838 8.54654 15.0297 8.78453 15.5127 8.88052C15.9977 8.97652 16.4997 8.92752 16.9547 8.73853C17.4097 8.54954 17.8006 8.22955 18.0746 7.81957C18.3486 7.40958 18.4946 6.9266 18.4946 6.43262C18.4936 5.77165 18.2306 5.13768 17.7626 4.6707C17.2957 4.20371 16.6617 3.94072 16.0007 3.93972V3.93772Z" fill="white"/>
<path d="M25.5703 10.1935C24.8254 10.1935 24.0974 9.97348 23.4784 9.5595C22.8594 9.14551 22.3775 8.55854 22.0925 7.87056C21.8075 7.18259 21.7325 6.42662 21.8785 5.69665C22.0235 4.96668 22.3825 4.29571 22.9074 3.76973C23.4334 3.24375 24.1044 2.88477 24.8354 2.73977C25.5643 2.59478 26.3223 2.66878 27.0093 2.95377C27.6962 3.23875 28.2852 3.72073 28.6992 4.33971C29.1122 4.95868 29.3332 5.68565 29.3332 6.43062C29.3322 7.42858 28.9352 8.38454 28.2302 9.09051C27.5252 9.79649 26.5683 10.1925 25.5713 10.1945L25.5703 10.1935ZM25.5703 3.93772C25.0773 3.93772 24.5934 4.08372 24.1844 4.35771C23.7734 4.6317 23.4534 5.02168 23.2654 5.47766C23.0774 5.93364 23.0264 6.43562 23.1234 6.9196C23.2184 7.40358 23.4574 7.84856 23.8054 8.19755C24.1534 8.54654 24.5994 8.78453 25.0823 8.88052C25.5663 8.97652 26.0693 8.92752 26.5243 8.73853C26.9793 8.54954 27.3703 8.22955 27.6442 7.81957C27.9182 7.40958 28.0642 6.9266 28.0642 6.43262C28.0632 5.77165 27.8002 5.13768 27.3323 4.6707C26.8653 4.20371 26.2313 3.94072 25.5703 3.93972V3.93772Z" fill="white"/>
<path d="M6.43209 19.7631C5.68712 19.7631 4.95915 19.5431 4.34018 19.1291C3.7212 18.7152 3.23822 18.1282 2.95323 17.4402C2.66824 16.7522 2.59325 15.9953 2.73924 15.2653C2.88524 14.5353 3.24322 13.8644 3.7692 13.3384C4.29518 12.8124 4.96515 12.4534 5.69612 12.3084C6.42709 12.1634 7.18306 12.2374 7.87103 12.5224C8.558 12.8074 9.14598 13.2904 9.55896 13.9093C9.97195 14.5283 10.1929 15.2563 10.1929 16.0003C10.1919 16.9972 9.79495 17.9532 9.08998 18.6592C8.38501 19.3651 7.42805 19.7611 6.43109 19.7621L6.43209 19.7631ZM6.43209 13.5064C5.93911 13.5064 5.45513 13.6524 5.04615 13.9263C4.63516 14.2003 4.31518 14.5903 4.12618 15.0453C3.93719 15.5003 3.88719 16.0023 3.98419 16.4862C4.08019 16.9702 4.31818 17.4152 4.66616 17.7642C5.01615 18.1132 5.46013 18.3512 5.94511 18.4472C6.42809 18.5432 6.93107 18.4942 7.38605 18.3052C7.84303 18.1162 8.23202 17.7962 8.50601 17.3862C8.77999 16.9762 8.92699 16.4932 8.92699 16.0003C8.92599 15.3393 8.663 14.7053 8.19502 14.2373C7.72804 13.7694 7.09406 13.5064 6.43309 13.5054L6.43209 13.5064Z" fill="white"/>
<path d="M16.0007 19.7631C15.2557 19.7631 14.5278 19.5431 13.9088 19.1291C13.2898 18.7152 12.8068 18.1282 12.5229 17.4402C12.2379 16.7522 12.1629 15.9953 12.3089 15.2653C12.4539 14.5353 12.8128 13.8644 13.3388 13.3384C13.8648 12.8124 14.5358 12.4534 15.2657 12.3084C15.9967 12.1634 16.7527 12.2374 17.4406 12.5224C18.1276 12.8074 18.7156 13.2904 19.1286 13.9093C19.5416 14.5283 19.7626 15.2563 19.7626 16.0003C19.7616 16.9972 19.3646 17.9532 18.6596 18.6592C17.9546 19.3651 16.9977 19.7621 16.0007 19.7631ZM16.0007 13.5064C15.5077 13.5064 15.0237 13.6524 14.6148 13.9263C14.2038 14.2003 13.8838 14.5903 13.6958 15.0453C13.5078 15.5003 13.4568 16.0023 13.5528 16.4862C13.6488 16.9702 13.8868 17.4152 14.2348 17.7642C14.5848 18.1132 15.0287 18.3512 15.5127 18.4472C15.9957 18.5432 16.4987 18.4942 16.9537 18.3052C17.4107 18.1162 17.7996 17.7962 18.0736 17.3862C18.3476 16.9762 18.4946 16.4932 18.4946 16.0003C18.4936 15.3393 18.2306 14.7053 17.7626 14.2373C17.2957 13.7694 16.6617 13.5074 16.0007 13.5064Z" fill="white"/>
<path d="M25.5703 19.7631C24.8254 19.7631 24.0974 19.5431 23.4784 19.1291C22.8594 18.7152 22.3765 18.1282 22.0925 17.4402C21.8075 16.7522 21.7325 15.9953 21.8785 15.2653C22.0235 14.5353 22.3825 13.8644 22.9084 13.3384C23.4344 12.8124 24.1054 12.4534 24.8354 12.3084C25.5663 12.1634 26.3223 12.2374 27.0103 12.5224C27.6972 12.8074 28.2852 13.2904 28.6982 13.9093C29.1112 14.5283 29.3322 15.2563 29.3322 16.0003C29.3312 16.9972 28.9342 17.9532 28.2292 18.6592C27.5242 19.3651 26.5673 19.7621 25.5703 19.7631ZM25.5703 13.5064C25.0773 13.5064 24.5934 13.6524 24.1844 13.9263C23.7734 14.2003 23.4534 14.5903 23.2654 15.0453C23.0774 15.5003 23.0264 16.0023 23.1224 16.4862C23.2184 16.9702 23.4564 17.4152 23.8064 17.7642C24.1554 18.1132 24.5994 18.3512 25.0833 18.4472C25.5663 18.5432 26.0683 18.4942 26.5243 18.3052C26.9813 18.1162 27.3703 17.7962 27.6442 17.3862C27.9182 16.9762 28.0652 16.4932 28.0652 16.0003C28.0642 15.3393 27.8012 14.7053 27.3333 14.2373C26.8663 13.7694 26.2323 13.5064 25.5713 13.5054L25.5703 13.5064Z" fill="white"/>
<path d="M6.43209 29.3327C5.68712 29.3327 4.95915 29.1127 4.34018 28.6988C3.7212 28.2848 3.23822 27.6978 2.95323 27.0098C2.66824 26.3218 2.59325 25.5649 2.73924 24.8349C2.88424 24.1049 3.24322 23.434 3.7692 22.908C4.29518 22.382 4.96515 22.023 5.69612 21.878C6.42709 21.733 7.18306 21.807 7.87103 22.092C8.558 22.377 9.14598 22.86 9.55896 23.479C9.97195 24.0979 10.1929 24.8259 10.1929 25.5699C10.1919 26.5668 9.79495 27.5228 9.08998 28.2288C8.38501 28.9347 7.42805 29.3307 6.43109 29.3317L6.43209 29.3327ZM6.43209 23.076C5.93911 23.076 5.45513 23.222 5.04615 23.496C4.63516 23.77 4.31518 24.1599 4.12618 24.6149C3.93719 25.0699 3.88719 25.5719 3.98419 26.0559C4.08019 26.5398 4.31818 26.9848 4.66616 27.3338C5.01615 27.6828 5.46013 27.9208 5.94511 28.0168C6.42809 28.1128 6.93107 28.0638 7.38605 27.8748C7.84303 27.6858 8.23202 27.3658 8.50601 26.9558C8.77999 26.5458 8.92699 26.0629 8.92699 25.5699C8.92599 24.9089 8.663 24.2749 8.19502 23.807C7.72804 23.339 7.09406 23.076 6.43309 23.075L6.43209 23.076Z" fill="white"/>
<path d="M16.0007 29.3327C15.2557 29.3327 14.5278 29.1127 13.9088 28.6988C13.2898 28.2848 12.8068 27.6978 12.5229 27.0098C12.2379 26.3218 12.1629 25.5649 12.3089 24.8349C12.4539 24.1049 12.8128 23.434 13.3388 22.908C13.8648 22.382 14.5358 22.023 15.2657 21.878C15.9967 21.733 16.7527 21.807 17.4406 22.092C18.1276 22.377 18.7156 22.86 19.1286 23.479C19.5416 24.0979 19.7626 24.8259 19.7626 25.5699C19.7616 26.5668 19.3646 27.5228 18.6596 28.2288C17.9546 28.9347 16.9977 29.3317 16.0007 29.3327ZM16.0007 23.076C15.5077 23.076 15.0237 23.222 14.6148 23.496C14.2038 23.77 13.8838 24.1599 13.6958 24.6149C13.5078 25.0699 13.4568 25.5719 13.5528 26.0559C13.6488 26.5398 13.8868 26.9848 14.2348 27.3338C14.5848 27.6828 15.0287 27.9208 15.5127 28.0168C15.9957 28.1128 16.4987 28.0638 16.9537 27.8748C17.4107 27.6858 17.7996 27.3658 18.0736 26.9558C18.3476 26.5458 18.4946 26.0629 18.4946 25.5699C18.4936 24.9089 18.2306 24.2749 17.7626 23.807C17.2957 23.339 16.6617 23.077 16.0007 23.076Z" fill="white"/>
<path d="M25.5703 29.3327C24.8254 29.3327 24.0974 29.1127 23.4784 28.6988C22.8594 28.2848 22.3765 27.6978 22.0925 27.0098C21.8075 26.3218 21.7325 25.5649 21.8785 24.8349C22.0235 24.1049 22.3825 23.434 22.9084 22.908C23.4344 22.382 24.1054 22.023 24.8354 21.878C25.5663 21.733 26.3223 21.807 27.0103 22.092C27.6972 22.377 28.2852 22.86 28.6982 23.479C29.1112 24.0979 29.3322 24.8259 29.3322 25.5699C29.3312 26.5668 28.9342 27.5228 28.2292 28.2288C27.5242 28.9347 26.5673 29.3317 25.5703 29.3327ZM25.5703 23.076C25.0773 23.076 24.5934 23.222 24.1844 23.496C23.7734 23.77 23.4534 24.1599 23.2654 24.6149C23.0774 25.0699 23.0264 25.5719 23.1224 26.0559C23.2184 26.5398 23.4564 26.9848 23.8064 27.3338C24.1554 27.6828 24.5994 27.9208 25.0833 28.0168C25.5663 28.1128 26.0683 28.0638 26.5243 27.8748C26.9813 27.6858 27.3703 27.3658 27.6442 26.9558C27.9182 26.5458 28.0652 26.0629 28.0652 25.5699C28.0642 24.9089 27.8012 24.2749 27.3333 23.807C26.8663 23.339 26.2323 23.076 25.5713 23.075L25.5703 23.076Z" fill="white"/>
</svg>
