<svg width="24" height="24" viewBox="0 0 24 24" fill="none" xmlns="http://www.w3.org/2000/svg">
    <path d="M12.012 2.263A10.002 10.002 0 0 0 8.85 21.757c.497.092.682-.221.682-.485V19.57c-2.782.614-3.371-1.339-3.371-1.339a2.677 2.677 0 0 0-1.112-1.467c-.903-.615.074-.615.074-.615a2.102 2.102 0 0 1 1.529 1.032 2.133 2.133 0 0 0 2.115 1.091c.28-.032.55-.119.796-.255.038-.506.256-.98.614-1.339-2.223-.252-4.556-1.111-4.556-4.943a3.87 3.87 0 0 1 1.025-2.683 3.641 3.641 0 0 1 .098-2.647s.842-.27 2.751 1.025c1.64-.45 3.37-.45 5.01 0 1.91-1.295 2.745-1.025 2.745-1.025.368.837.405 1.783.105 2.647a3.87 3.87 0 0 1 1.025 2.683c0 3.844-2.34 4.685-4.568 4.912a2.36 2.36 0 0 1 .681 1.842v2.745c0 .326.178.578.688.485A10.003 10.003 0 0 0 21.87 10.63a10.008 10.008 0 0 0-9.857-8.402v.036h-.001z" fill="#fff"/>
</svg>
