<!-- Generated by IcoMoon.io -->
<svg version="1.1" xmlns="http://www.w3.org/2000/svg" width="512" height="512" viewBox="0 0 512 512" fill="white">
<title>sphere</title>
<g id="icomoon-ignore">
</g>
<path d="M242.133 61.867c-114.875 0-208 93.125-208 208s93.125 208 208 208c114.876 0 208-93.124 208-208 0-114.875-93.124-208-208-208zM359.822 339.2c3.718-17.53 6.065-36.137 6.829-55.467h55.227c-1.446 19.152-5.904 37.749-13.295 55.467h-48.76zM124.444 200.533c-3.718 17.53-6.065 36.137-6.829 55.467h-55.226c1.446-19.151 5.903-37.749 13.294-55.467h48.76zM331.416 200.533c4.166 17.75 6.673 36.337 7.488 55.467h-82.904v-55.467h75.416zM256 172.8v-81.18c6.322 1.84 12.586 4.927 18.732 9.26 11.519 8.121 22.539 20.63 31.867 36.177 6.449 10.748 12.026 22.714 16.682 35.743h-67.281zM177.667 137.057c9.329-15.547 20.348-28.058 31.867-36.177 6.146-4.333 12.41-7.42 18.732-9.26v81.181h-67.281c4.657-13.029 10.234-24.995 16.682-35.743zM228.267 200.533v55.467h-82.903c0.815-19.13 3.322-37.716 7.487-55.467h75.416zM75.685 339.2c-7.391-17.717-11.848-36.315-13.294-55.467h55.226c0.764 19.33 3.111 37.937 6.829 55.467h-48.76zM145.364 283.733h82.903v55.467h-75.416c-4.165-17.749-6.673-36.337-7.487-55.467zM228.267 366.933v81.181c-6.322-1.84-12.586-4.928-18.732-9.26-11.52-8.121-22.539-20.631-31.867-36.177-6.449-10.748-12.025-22.714-16.683-35.743h67.282zM306.599 402.676c-9.329 15.546-20.349 28.057-31.867 36.177-6.146 4.332-12.41 7.42-18.732 9.26v-81.181h67.282c-4.657 13.029-10.234 24.995-16.683 35.743zM256 339.2v-55.467h82.903c-0.815 19.13-3.322 37.717-7.488 55.467h-75.415zM366.651 256c-0.764-19.33-3.111-37.937-6.829-55.467h48.76c7.391 17.717 11.849 36.316 13.295 55.467h-55.227zM394.085 172.8h-41.557c-8.077-25.464-19.23-47.794-32.637-65.619 18.432 8.814 35.125 20.634 49.709 35.218 9.308 9.307 17.49 19.473 24.484 30.401zM114.666 142.399c14.585-14.585 31.278-26.404 49.709-35.218-13.408 17.825-24.56 40.155-32.637 65.619h-41.556c6.993-10.928 15.176-21.094 24.483-30.401zM90.182 366.933h41.556c8.077 25.464 19.23 47.794 32.638 65.62-18.432-8.814-35.125-20.634-49.709-35.219-9.308-9.307-17.491-19.473-24.484-30.401zM369.601 397.334c-14.584 14.585-31.278 26.405-49.709 35.219 13.408-17.825 24.56-40.156 32.637-65.62h41.557c-6.994 10.928-15.176 21.094-24.484 30.401z"></path>
</svg>
